<svg width="12" height="12" viewBox="0 0 12 12" fill="none" xmlns="http://www.w3.org/2000/svg">
<path fill-rule="evenodd" clip-rule="evenodd" d="M1.70711 0.292893C1.31658 -0.0976311 0.683418 -0.0976311 0.292893 0.292893C-0.0976311 0.683418 -0.0976311 1.31658 0.292893 1.70711L8.58579 10H2C1.44772 10 1 10.4477 1 11C1 11.5523 1.44772 12 2 12H10.9993H11C11.001 12 11.002 12 11.003 12C11.1375 11.9996 11.2657 11.9727 11.3828 11.9241C11.498 11.8764 11.6062 11.8063 11.7005 11.7136C11.7049 11.7093 11.7093 11.7049 11.7136 11.7005C11.8901 11.5208 11.9992 11.2746 12 11.003C12 11.002 12 11.001 12 11V10.9993V2C12 1.44772 11.5523 1 11 1C10.4477 1 10 1.44772 10 2V8.58579L1.70711 0.292893Z" fill="#C8122D"/>
</svg>
