<svg width="49" height="28" viewBox="0 0 49 28" fill="none" xmlns="http://www.w3.org/2000/svg">
<path fill-rule="evenodd" clip-rule="evenodd" d="M9.20612 2.97598C9.15789 3.15913 9.11253 3.33138 9.06575 3.48042C8.93547 3.48004 8.7627 3.47522 8.57027 3.46986C7.99866 3.45394 7.25362 3.43318 6.93388 3.50937C6.35345 3.64765 6.14907 4.2432 6.5045 4.6987C6.71855 4.97299 7.0417 5.23559 7.36541 5.49864C7.62797 5.712 7.8909 5.92566 8.09626 6.14609C8.05942 6.37936 7.99576 6.64771 7.92981 6.92564L7.92981 6.92566C7.8061 7.44704 7.67441 8.00211 7.69688 8.42245C7.76215 9.64545 8.65242 9.03996 9.45686 8.49285C9.96247 8.14897 10.4342 7.82815 10.6458 7.99894C10.9942 8.26905 12.2541 9.17351 12.6642 9.13765C13.5588 9.05938 13.2552 7.93671 13.0075 7.02043L13.0075 7.02042C12.915 6.67861 12.8304 6.36552 12.8186 6.14609C12.9124 6.06555 13.0336 5.96605 13.1682 5.85565L13.1682 5.85564C13.6202 5.48477 14.222 4.99088 14.4355 4.6796C14.7722 4.1887 14.4709 3.61554 13.9262 3.50198C13.3857 3.38934 12.7226 3.42973 12.1406 3.46518L12.1406 3.46518L12.1405 3.46519C12.0523 3.47056 11.9659 3.47582 11.8821 3.48042C11.8277 3.31729 11.7764 3.12178 11.7216 2.91289C11.4929 2.04061 11.2029 0.934951 10.3663 0.97882C9.68411 1.16098 9.41757 2.1731 9.20612 2.97598ZM9.65565 4.23435C9.87912 4.05992 9.98677 3.73711 10.1849 3.14301L10.1849 3.14299C10.2649 2.90299 10.3597 2.61871 10.4829 2.28206C10.5325 2.35847 10.5624 2.46802 10.5895 2.5674C10.5985 2.60016 10.6071 2.63181 10.6161 2.66081L10.622 2.67985C10.9136 3.62355 11.0506 4.06657 11.3503 4.27139C11.6155 4.45262 12.0081 4.44734 12.7483 4.43738C12.9087 4.43522 13.0855 4.43284 13.2809 4.4321C11.6457 5.71056 11.648 5.72054 12.0896 7.58314L12.1429 7.80862C11.9581 7.70102 11.776 7.56871 11.592 7.43501C11.2401 7.17934 10.8812 6.91857 10.4829 6.8157C10.0701 6.86491 9.5971 7.21089 9.18182 7.51467L9.18182 7.51468C9.03347 7.62319 8.89248 7.72633 8.76423 7.80862C8.83412 7.44514 8.89839 7.15232 8.95123 6.91161L8.95123 6.91159C9.07544 6.34572 9.13645 6.06777 9.05857 5.83662C8.98339 5.61349 8.77879 5.43397 8.37669 5.08115L8.37668 5.08115L8.37666 5.08113C8.18431 4.91236 7.94676 4.70393 7.65657 4.4321C7.78494 4.43249 7.90533 4.4332 8.01835 4.43386L8.01844 4.43386C8.95985 4.43939 9.38974 4.44191 9.65565 4.23435ZM23.2389 2.65573L23.2389 2.65575L23.2389 2.65576C23.1539 2.94586 23.0697 3.23298 22.9598 3.48041C22.8288 3.48129 22.6599 3.47036 22.4707 3.45812C21.5787 3.4004 20.2364 3.31355 20.2972 4.29826C20.3241 4.73322 21.0681 5.3164 21.5529 5.69644C21.6521 5.77418 21.7405 5.84342 21.8096 5.90115L22.1043 6.14607C22.0743 6.30653 22.0161 6.51964 21.9507 6.75851C21.6972 7.68565 21.3374 9.00084 22.1166 9.13166C22.4781 9.19231 23.1372 8.72954 23.6685 8.35649C24.0489 8.08944 24.3638 7.86836 24.4571 7.91818C24.5865 8.00067 24.757 8.1186 24.9442 8.24818L24.9444 8.24828L24.9445 8.24834C25.3967 8.56125 25.9469 8.942 26.2547 9.0556C27.6077 9.55518 27.0825 7.60966 26.8136 6.61377C26.7577 6.40657 26.7128 6.24048 26.6983 6.14607C26.772 6.0905 26.8594 6.02744 26.9554 5.95811L26.9557 5.95794L26.9557 5.95791C27.7079 5.41492 28.9918 4.48815 28.4318 3.77244C28.1056 3.35553 27.0038 3.41842 26.2659 3.46055C26.0844 3.47091 25.9248 3.48002 25.8043 3.48041L25.3583 2.17365C25.3374 2.11179 25.3174 2.04852 25.2973 1.98497C25.1434 1.49799 24.9842 0.994355 24.3813 0.978805C23.6858 1.13161 23.4594 1.90369 23.2389 2.65573ZM23.5408 4.21864C23.8658 3.98592 24.0118 3.5032 24.3138 2.50503L24.3813 2.28205C24.4366 2.34846 24.4684 2.46506 24.4958 2.56606L24.4958 2.56608L24.4958 2.5661C24.5053 2.60088 24.5143 2.63381 24.5235 2.6622C25.1051 4.45411 25.2034 4.45306 26.8245 4.43568C26.9552 4.43428 27.0958 4.43277 27.2474 4.43209C26.9477 4.69795 26.7004 4.90413 26.4984 5.07253C26.055 5.44215 25.83 5.62973 25.7482 5.86674C25.6639 6.11094 25.7316 6.40761 25.869 7.00996L25.869 7.01001C25.9194 7.23093 25.9792 7.49297 26.0443 7.80861C25.9334 7.73196 25.8216 7.64563 25.7076 7.55768C25.3071 7.2487 24.8806 6.91963 24.3813 6.91927C24.0202 6.90184 23.5233 7.25446 23.1144 7.54465C22.9708 7.64659 22.838 7.74083 22.7258 7.80861C22.7876 7.54029 22.8447 7.30976 22.8944 7.10936L22.8945 7.1092C23.0547 6.46299 23.1372 6.12995 23.0474 5.85275C22.9519 5.55797 22.6615 5.32633 22.0623 4.84837L22.0623 4.84834C21.9103 4.72712 21.7385 4.59005 21.5449 4.43209C21.6634 4.43206 21.7754 4.43239 21.8814 4.43269L21.8815 4.43269C22.775 4.43526 23.2364 4.43658 23.5408 4.21864ZM37.0573 3.07894L37.0573 3.07885C37.2698 2.26753 37.5731 1.109 38.3077 0.978805C39.0606 1.05655 39.4169 2.30659 39.6552 3.14308L39.6553 3.14317C39.6903 3.26622 39.7228 3.38031 39.7537 3.48041C40.3411 3.44115 41.8209 3.37142 42.2002 3.6733C42.9435 4.26476 41.8815 5.14763 41.1939 5.71933L41.1939 5.71937C41.0044 5.87689 40.8433 6.01079 40.7563 6.10845L40.7232 6.14607C40.7515 6.27102 40.7988 6.43156 40.8523 6.61311C41.1041 7.46829 41.4934 8.78976 40.6825 9.05502C40.1902 9.21605 39.6253 8.75856 39.15 8.3736C38.7983 8.08876 38.4956 7.84363 38.3077 7.91818C38.2323 7.9684 38.1341 8.03765 38.0207 8.11768L38.0205 8.11778C37.4725 8.50441 36.5681 9.14243 36.149 9.10166C35.2511 9.01442 35.5508 7.89196 35.7988 6.96315L35.7988 6.96309C35.8813 6.65429 35.958 6.36689 35.9831 6.14607C35.7125 5.89071 35.4181 5.66185 35.1238 5.43307C34.9134 5.2695 34.7031 5.10597 34.5015 4.93283C33.9671 4.47381 33.9503 3.67552 34.7595 3.5131C35.1315 3.43837 35.8731 3.45673 36.4517 3.47105C36.6407 3.47573 36.8123 3.47998 36.9479 3.48041C36.9827 3.36377 37.0185 3.22715 37.0573 3.07894ZM38.1218 2.92567L38.1218 2.92571C37.6825 4.48118 37.6797 4.49086 35.4597 4.43209C35.7217 4.65715 35.9431 4.83823 36.1287 4.99C36.6022 5.37722 36.8425 5.57372 36.929 5.82348C37.0182 6.0808 36.9442 6.39466 36.794 7.03189C36.7427 7.24953 36.6825 7.50489 36.6169 7.80861C36.8462 7.70261 37.0546 7.56 37.2629 7.41756C37.5563 7.21685 37.8493 7.01646 38.1992 6.91927C38.7219 6.82752 39.2741 7.22764 39.7393 7.56468L39.7394 7.56474C39.8624 7.65386 39.9793 7.73857 40.088 7.80861C40.0615 7.67312 40.0165 7.49048 39.9675 7.29184C39.8583 6.84894 39.7296 6.32645 39.7426 6.06943C39.7662 5.60139 40.2199 5.19729 40.6212 4.83994C40.7818 4.69686 40.9341 4.56128 41.0469 4.43209C40.9477 4.4324 40.8355 4.43676 40.7157 4.44141C40.1518 4.46332 39.4182 4.49183 39.0732 4.13619C38.8563 3.91254 38.699 3.38713 38.5681 2.94981L38.568 2.94976C38.4713 2.62677 38.389 2.35184 38.3077 2.28205C38.2359 2.52157 38.1756 2.73521 38.1218 2.92567ZM2.66759 14.3832L2.66924 16.8256C-0.454282 17.073 -1.00131 21.4344 1.9089 22.4593L1.90788 25.3079C1.90791 25.4365 1.90457 25.5684 1.9012 25.7016C1.89219 26.0574 1.88295 26.4225 1.93697 26.7611C1.99479 27.1236 2.4662 27.3315 2.73924 27.0439C2.96606 26.805 2.93351 25.8762 2.91354 25.3063C2.90897 25.176 2.90506 25.0644 2.90506 24.9842H12.0156C12.5183 24.9841 13.0227 24.9787 13.5276 24.9734C14.5422 24.9625 15.5587 24.9517 16.5676 24.9842C16.5685 25.0745 16.5642 25.1991 16.5591 25.3427C16.5394 25.9038 16.5094 26.756 16.7459 26.9955C17.6548 27.9159 17.58 25.4972 17.5661 25.0467C17.5651 25.0164 17.5645 24.995 17.5644 24.9842H31.1431C31.1425 25.0546 31.1388 25.1465 31.1346 25.2518C31.1145 25.7568 31.0821 26.5689 31.315 26.788C31.4973 26.9593 31.8355 26.8926 31.9858 26.7108C32.1906 26.4628 32.169 25.8975 32.1514 25.4389C32.1447 25.264 32.1386 25.1045 32.1459 24.9842C33.1679 24.9738 34.1906 24.9773 35.2131 24.9807C35.7243 24.9824 36.2354 24.9842 36.7464 24.9842H45.9403C45.9399 25.0312 45.938 25.0943 45.9358 25.1692C45.913 25.9231 45.8543 27.8706 46.9531 26.6606C46.9679 26.3609 46.9631 26.059 46.9584 25.7577C46.9563 25.6255 46.9542 25.4934 46.9538 25.3617L46.9531 23.0765V22.4593C47.8024 21.9422 48.5108 21.4365 48.7554 20.414C49.1656 18.6996 47.8351 16.9524 46.1097 16.8256L46.1113 14.6041C46.1114 14.472 46.1135 14.3377 46.1156 14.2022C46.1245 13.6398 46.1336 13.0556 45.9994 12.5211C45.4455 10.3167 43.4999 10.3599 41.7187 10.3995C41.4835 10.4048 41.2511 10.4099 41.0252 10.4099L35.9401 10.4114C33.1821 10.4352 32.9595 12.4148 32.9606 14.6291L32.9627 17.134C32.2033 16.8649 31.739 16.8081 30.935 16.8256L30.9362 14.5599C30.9372 11.7546 30.4596 10.4142 27.3586 10.4108L25.7588 10.4102C25.2142 10.4103 24.6694 10.4086 24.1246 10.4068C23.0252 10.4033 21.9257 10.3998 20.8269 10.4117C18.0713 10.4414 17.8933 12.4496 17.8947 14.6397L17.8969 16.8256C17.16 16.806 16.5361 16.8422 15.8525 17.134L15.8537 14.6127C15.8537 14.4546 15.8577 14.2914 15.8618 14.1256C15.8754 13.572 15.8897 12.9899 15.7577 12.4773C15.1987 10.3043 13.0983 10.3558 11.3086 10.3996C11.0679 10.4055 10.8328 10.4113 10.6078 10.4115L5.31671 10.4054C5.28686 10.4054 5.27676 10.4053 5.26669 10.4059C5.25601 10.4065 5.24537 10.4079 5.21128 10.4109C2.84072 10.691 2.66782 12.426 2.66759 14.3832ZM3.68877 14.1718C3.683 12.847 3.67762 11.6122 5.374 11.415C5.62305 11.3945 5.88345 11.4008 6.14045 11.407C6.26042 11.4099 6.37966 11.4127 6.49665 11.4129L11.5179 11.4143C14.0513 11.4072 14.8651 11.4574 14.8526 14.068L14.8553 16.9871C14.8557 17.5759 14.872 17.7538 14.8245 17.9127C14.7791 18.0645 14.6755 18.1988 14.4443 18.6575C14.2061 19.1303 14.1628 19.7259 14.134 20.2462H13.2809H6.227C6.18575 18.6228 5.3925 17.1828 3.68959 16.8256L3.68933 14.319C3.6892 14.2698 3.68899 14.2208 3.68877 14.1718ZM18.9184 14.3736C18.9065 12.6196 18.8985 11.4495 21.1227 11.415L25.9863 11.4133C26.1535 11.4132 26.3138 11.4127 26.4675 11.4123C29.4263 11.4035 29.9177 11.4021 29.918 14.5816L29.9168 17.134C28.7849 17.8901 28.3294 18.8748 28.2894 20.2462H27.7566H20.482C20.4875 19.0108 20.0308 17.9198 18.9199 17.2597L18.9198 14.5957C18.9194 14.5207 18.9189 14.4466 18.9184 14.3736ZM33.9505 14.4072C33.9332 13.0912 33.9136 11.6124 35.6465 11.415L40.9389 11.4143C41.1441 11.4142 41.3729 11.404 41.6148 11.3932C42.9496 11.3338 44.6832 11.2566 45.0486 12.762C45.1316 13.104 45.1174 13.4981 45.104 13.873C45.0992 14.0063 45.0945 14.1371 45.0943 14.2623L45.0922 16.8256C43.4835 17.1528 43.1167 18.1121 42.6458 19.4069C42.6338 19.5812 42.6379 19.7592 42.6419 19.9366C42.6443 20.0403 42.6466 20.1437 42.6458 20.2462H34.6574C34.679 19.3295 34.4776 18.7217 33.9547 17.9696L33.9539 14.7535C33.9536 14.64 33.9521 14.5242 33.9505 14.4072ZM1.84075 21.3151C0.304999 20.3433 0.972179 18.1582 2.66924 17.7956C3.98025 17.6567 5.14108 18.4841 5.19958 19.869C5.20296 19.949 5.20458 20.0283 5.20617 20.1061C5.21824 20.696 5.22844 21.195 5.99117 21.2204C6.90528 21.2507 7.82635 21.2402 8.74572 21.2298C9.21564 21.2245 9.68512 21.2192 10.153 21.2194L13.1054 21.2211C13.2649 21.2212 13.4249 21.224 13.5849 21.2268C13.8479 21.2314 14.1112 21.236 14.3732 21.2291C15.1884 21.2073 15.1847 20.7504 15.1801 20.1807C15.1789 20.0349 15.1777 19.8816 15.1901 19.7264C15.3881 17.2492 19.3412 17.2051 19.4547 19.8417C19.4582 19.9229 19.4579 20.0106 19.4576 20.1011C19.456 20.6057 19.4541 21.195 20.1069 21.2179C21.1221 21.2535 22.148 21.2425 23.1712 21.2316C23.6597 21.2264 24.1476 21.2212 24.6334 21.2211L27.4253 21.2209C27.5813 21.2209 27.7378 21.2236 27.8944 21.2262C28.17 21.2308 28.4459 21.2354 28.7202 21.2262C29.3551 21.2048 29.3586 20.6103 29.362 20.0344C29.3636 19.7649 29.3652 19.4994 29.4314 19.2988C30.163 17.0828 33.4574 17.508 33.6229 19.7945C33.6821 20.6125 33.6512 20.9694 33.813 21.1216C33.9764 21.2753 34.3364 21.2202 35.1846 21.2208L41.0867 21.221C41.1603 21.221 41.288 21.2252 41.4474 21.2305C42.0947 21.2519 43.2651 21.2907 43.463 21.1338C43.6902 20.9536 43.6846 20.4492 43.6799 20.0225C43.6779 19.8369 43.676 19.6659 43.6935 19.5428C44.0795 16.8323 48.2454 17.3774 47.7598 20.2462C47.4772 21.1162 47.0017 21.2733 46.5865 21.4105C46.3787 21.4791 46.1861 21.5427 46.0403 21.6882C45.8889 21.8391 45.9191 23.0724 45.9344 23.6988C45.9376 23.8285 45.9401 23.9322 45.9403 23.9949H32.1459C32.145 23.8733 32.1559 23.7083 32.1682 23.5216C32.2086 22.9079 32.2644 22.0599 31.969 21.7512C31.6526 21.4204 31.2038 21.6764 31.1305 22.0644C31.0847 22.3074 31.1133 23.1196 31.1319 23.646C31.1369 23.7891 31.1412 23.9111 31.1431 23.9949H17.5644C17.5635 23.8279 17.57 23.6201 17.577 23.3988C17.5924 22.9114 17.6098 22.358 17.554 22.0288C17.4888 21.6454 17.0602 21.3452 16.7307 21.6814C16.458 21.9598 16.5135 22.9409 16.5495 23.5781C16.5591 23.7481 16.5674 23.8937 16.5676 23.9949H2.90506C2.90457 23.8602 2.90935 23.679 2.91465 23.4778C2.92884 22.9388 2.9468 22.2573 2.87723 21.9499C2.81858 21.6906 2.52894 21.5887 2.24331 21.4883C2.0977 21.4371 1.95314 21.3862 1.84075 21.3151Z" fill="white"/>
</svg>
