<svg width="18" height="18" viewBox="0 0 18 18" fill="none" xmlns="http://www.w3.org/2000/svg">
<path d="M3.99992 16.5C4.92039 16.5 5.66659 15.7538 5.66659 14.8333C5.66659 13.9128 4.92039 13.1667 3.99992 13.1667C3.07944 13.1667 2.33325 13.9128 2.33325 14.8333C2.33325 15.7538 3.07944 16.5 3.99992 16.5Z" stroke="white" stroke-width="2" stroke-linecap="round" stroke-linejoin="round"/>
<path d="M13.1667 16.5C14.0871 16.5 14.8333 15.7538 14.8333 14.8333C14.8333 13.9128 14.0871 13.1667 13.1667 13.1667C12.2462 13.1667 11.5 13.9128 11.5 14.8333C11.5 15.7538 12.2462 16.5 13.1667 16.5Z" stroke="white" stroke-width="2" stroke-linecap="round" stroke-linejoin="round"/>
<path d="M13.1666 13.1667H3.99992V1.5H2.33325" stroke="white" stroke-width="2" stroke-linecap="round" stroke-linejoin="round"/>
<path d="M4 3.16666L15.6667 3.99999L14.8333 9.83332H4" stroke="white" stroke-width="2" stroke-linecap="round" stroke-linejoin="round"/>
</svg>
