<svg width="44" height="44" viewBox="0 0 44 44" fill="none" xmlns="http://www.w3.org/2000/svg">
<path fill-rule="evenodd" clip-rule="evenodd" d="M16.248 13.5165C16.6572 20.0701 22.0538 24.9589 28.5991 24.7859C32.0598 24.6148 34.8634 23.2764 37.1926 20.7007C44.087 13.077 38.2737 0.58629 27.8722 0.803391C21.0794 1.22075 15.8176 6.62428 16.248 13.5165ZM20.511 5.51592C22.456 3.50816 25.0494 2.24026 27.8722 2.19886C28.2313 2.15218 28.6071 2.17865 28.9692 2.20417L29.0564 2.21027C34.2094 2.56667 38.3817 6.89745 38.7349 12.0244C39.0835 17.0831 35.7057 21.9736 30.7192 23.1555C30.0214 23.3208 29.3129 23.3903 28.5991 23.4395L28.266 23.4488C19.0862 23.6247 13.9724 12.2646 20.511 5.51592ZM25.3347 8.25141L25.3374 10.4718C25.284 10.4703 25.2265 10.4677 25.1661 10.465C24.6152 10.4403 23.8307 10.4051 23.8433 11.1282C23.8487 11.4371 24.0282 11.6737 24.2646 11.8513C24.6246 11.8315 24.9775 11.8226 25.3374 11.8513V13.0173C25.275 13.0149 25.2049 13.0099 25.1299 13.0046L25.1298 13.0046C24.7579 12.9784 24.2672 12.9438 24.019 13.165C23.7319 13.4209 23.7481 13.9236 24.0153 14.1864C24.2617 14.4287 24.7547 14.402 25.1349 14.3814L25.1349 14.3814L25.135 14.3814C25.2074 14.3775 25.2757 14.3738 25.3374 14.3722L25.3365 14.5115V14.5117C25.3347 14.7758 25.3329 15.0398 25.3374 15.3039C25.2784 15.2999 25.2146 15.2939 25.1478 15.2877C24.7889 15.254 24.3426 15.2121 24.0821 15.4325C23.4342 15.9806 23.9149 16.6659 24.842 16.6639L25.3374 16.6598C25.3369 16.7829 25.3321 16.9459 25.3267 17.1266L25.3267 17.1268C25.3116 17.6356 25.2924 18.2838 25.3544 18.5702C25.4637 19.0759 26.0792 19.37 26.4662 18.9284C26.7742 18.5767 26.7205 17.7239 26.6815 17.1033C26.6708 16.9329 26.6612 16.7801 26.6604 16.6598H28.7455C28.8103 16.662 28.8802 16.6661 28.9535 16.6704C29.3455 16.6937 29.8304 16.7224 30.1123 16.475C30.3731 16.2463 30.3692 15.7323 30.1326 15.4883C29.8863 15.2343 28.3928 15.2711 27.4107 15.2953L27.4107 15.2953C27.0805 15.3034 26.8081 15.3101 26.6604 15.3039V14.3722L28.6754 14.3741C30.1499 14.3756 31.2609 14.3659 32.3827 13.2387C33.876 11.7382 33.9011 9.16031 32.3829 7.65949C31.2589 6.5482 30.0944 6.45797 28.5988 6.45844L26.7465 6.46078C25.2942 6.46972 25.2982 6.62374 25.3256 7.69223V7.69227V7.69231C25.3298 7.85623 25.3346 8.04167 25.3347 8.25141ZM26.6367 8.52586C26.602 8.15571 26.5737 7.85435 26.9519 7.83117L28.5706 7.82824L28.6907 7.82803C29.663 7.82597 30.5277 7.82413 31.3046 8.52738C33.1251 10.1756 31.8928 12.945 29.558 13.0173H26.6604C26.6701 12.6277 26.6749 12.2409 26.6604 11.8513C26.7987 11.8464 26.9757 11.8536 27.1692 11.8615C27.7272 11.8843 28.4229 11.9126 28.7254 11.6725C29.0019 11.4529 29.0426 10.9766 28.7953 10.7195C28.5014 10.4143 27.5786 10.4444 26.9778 10.464H26.9778C26.8562 10.468 26.7478 10.4715 26.6604 10.4718L26.6589 8.87695C26.6584 8.75748 26.6473 8.63849 26.6367 8.52586ZM38.756 23.2812C33.2245 28.966 23.8583 29.0115 18.0083 23.6391C17.4376 23.115 16.5834 22.1389 17.8376 21.8376C18.2046 21.8436 18.4456 22.101 18.6823 22.3538C18.7625 22.4395 18.8423 22.5247 18.9263 22.5994C24.3168 27.3915 31.7398 27.6062 37.2792 22.7396C37.3477 22.6794 37.4242 22.6042 37.5066 22.5231C37.805 22.2293 38.1815 21.8588 38.5412 21.8489C39.3602 21.8263 39.3832 22.7031 38.756 23.2812ZM4.48944 42.7186C4.83842 43.5925 5.67162 43.3876 5.86885 42.5995C5.70514 41.9472 5.46129 41.3035 5.21956 40.6655C5.11938 40.401 5.01956 40.1376 4.92596 39.8748C8.37678 38.4332 10.6931 38.67 14.1955 40.1128C14.966 40.4302 15.7166 40.7858 16.4586 41.1374C19.425 42.543 22.2554 43.884 25.6816 42.4595C26.4025 42.1598 27.0901 41.7345 27.7655 41.3168C27.978 41.1854 28.1893 41.0547 28.4 40.9289C28.9923 40.5922 29.5772 40.2448 30.1623 39.8973C30.5451 39.6698 30.9281 39.4424 31.3132 39.2179L41.0144 33.4817C41.1456 33.4044 41.2808 33.3299 41.4167 33.255C41.7477 33.0725 42.0826 32.8879 42.3722 32.6568C44.2789 31.1356 42.7258 28.0791 40.3721 28.6431C40.0308 28.7249 39.6961 28.8601 39.3664 28.9933C39.2697 29.0323 39.1734 29.0712 39.0774 29.1086L33.4726 31.2246C33.2303 31.317 32.9844 31.406 32.7377 31.4952C32.1982 31.6904 31.6553 31.8869 31.1403 32.1223C30.2037 30.026 28.9951 29.981 26.9598 29.9815L23.6742 29.9835C22.3603 29.9842 21.8395 29.9998 21.3647 29.8594C20.887 29.7182 20.4559 29.4191 19.3103 28.7882C17.0649 27.5515 14.3743 26.8119 11.7958 26.9858C8.21014 27.2797 5.64139 28.1174 2.56229 30.152C1.471 30.8731 0.953262 31.145 0.815678 31.547C0.687602 31.9212 0.888955 32.4082 1.26372 33.4752L3.56292 40.0952C3.62239 40.27 3.68142 40.4454 3.74054 40.6211C3.97725 41.3245 4.21545 42.0324 4.48944 42.7186ZM2.2186 32.1223C4.72698 29.8742 8.50639 28.6023 11.7958 28.3385C14.3682 28.3149 16.5339 28.774 18.7898 30.0458C19.9942 30.7247 20.5238 31.0463 21.0982 31.198C21.671 31.3493 22.2884 31.3319 23.6637 31.3315L26.9889 31.329C27.1184 31.329 27.2563 31.3246 27.3983 31.3201C27.876 31.305 28.4007 31.2884 28.8145 31.4292C29.6058 31.6984 30.0791 32.5846 29.7789 33.3845C29.3608 34.4983 28.1696 34.4542 27.1436 34.4161C26.9629 34.4095 26.7874 34.403 26.6222 34.403L21.6449 34.4032C21.3911 34.4036 21.1347 34.3991 20.8776 34.3947C20.357 34.3856 19.8333 34.3766 19.321 34.4071C18.3787 34.4633 18.3303 35.5076 19.0194 35.725C19.2966 35.8124 19.9062 35.7925 20.3785 35.7771C20.5368 35.772 20.6797 35.7673 20.7894 35.7674L26.6483 35.7692C26.7418 35.7692 26.8344 35.7695 26.9262 35.7698C28.8522 35.7759 30.3841 35.7807 31.1403 33.539C32.9771 32.8358 34.8271 32.158 36.6749 31.481C37.0469 31.3447 37.4188 31.2085 37.7905 31.072C37.959 31.0102 38.201 30.9074 38.4802 30.7887C39.3435 30.4219 40.5628 29.9038 41.0667 29.9781C41.579 30.0536 41.9558 30.5474 41.8381 31.0662C41.719 31.5914 40.6463 32.1638 39.9529 32.5338C39.7851 32.6234 39.6395 32.7011 39.5349 32.7634C38.8837 33.1336 38.2445 33.5203 37.6049 33.9071C37.2221 34.1386 36.8391 34.3702 36.4535 34.5983L26.8011 40.288C24.5025 41.6452 22.802 42.2821 20.0503 41.2266C19.7236 41.1012 19.4053 40.9486 19.0874 40.7962C18.8785 40.696 18.6698 40.5959 18.4589 40.5036C17.9419 40.2775 17.4411 40.052 16.9526 39.8319C12.7235 37.9271 9.41382 36.4364 4.47268 38.5771C3.97649 37.0476 3.43535 35.5346 2.89411 34.0213C2.66787 33.3888 2.44161 32.7562 2.2186 32.1223Z" fill="white"/>
</svg>
