<svg width="14" height="16" viewBox="0 0 14 16" fill="none" xmlns="http://www.w3.org/2000/svg">
<path fill-rule="evenodd" clip-rule="evenodd" d="M9 3.75V3.25H5V3.75H3V3.25H2.5C2.22385 3.25 2 3.47385 2 3.75V5.75H12V3.75C12 3.47387 11.7761 3.25 11.5 3.25H11V3.75H9ZM2 12.75V7.75H12V12.75C12 13.0261 11.7761 13.25 11.5 13.25H2.5C2.22387 13.25 2 13.0261 2 12.75ZM3 1.25H2.5C1.11929 1.25 0 2.36929 0 3.75V12.75C0 14.1307 1.11927 15.25 2.5 15.25H11.5C12.8807 15.25 14 14.1307 14 12.75V3.75C14 2.36927 12.8807 1.25 11.5 1.25H11V0.75H9V1.25H5V0.75H3V1.25ZM4 8.75C3.44772 8.75 3 9.19771 3 9.75V11.25C3 11.8023 3.44772 12.25 4 12.25H5.5C6.05228 12.25 6.5 11.8023 6.5 11.25V9.75C6.5 9.19771 6.05228 8.75 5.5 8.75H4Z" fill="#C2C2C2"/>
</svg>
