<svg width="36" height="28" viewBox="0 0 36 28" fill="none" xmlns="http://www.w3.org/2000/svg">
<path d="M13.3681 9.58129V7.07202C11.1866 7.41045 9.34688 8.79599 8.38013 10.697L10.7665 11.4724L13.3681 9.58129Z" fill="#C8122D"/>
<path d="M20.436 10.697C19.4692 8.79599 17.6294 7.41045 15.448 7.07202V9.58129L18.0496 11.4724L20.436 10.697Z" fill="#C8122D"/>
<path d="M13.0252 15.6542H15.7909L16.6447 13.0227L14.408 11.3969L12.1714 13.0227L13.0252 15.6542Z" fill="#C8122D"/>
<path d="M7.73598 12.6749C7.67975 13.0251 7.65015 13.3841 7.65015 13.75C7.65015 15.619 8.41298 17.3132 9.64355 18.5378L11.1165 16.5113L10.1236 13.4507L7.73598 12.6749Z" fill="#C8122D"/>
<path d="M32.232 0.455994H30.004C29.348 0.455994 28.8161 0.98787 28.8161 1.64393V3.724C28.8161 4.29838 28.3504 4.76404 27.7761 4.76404C27.2017 4.76404 26.736 4.29838 26.736 3.724V1.64393C26.736 0.98787 26.2041 0.455994 25.5481 0.455994H3.26801C1.46604 0.455994 0 1.92203 0 3.724V23.776C0 25.5779 1.46604 27.044 3.26801 27.044H25.5479C26.204 27.044 26.7359 26.5122 26.7359 25.8561V23.776C26.7359 23.2016 27.2015 22.736 27.7759 22.736C28.3503 22.736 28.8159 23.2016 28.8159 23.776V25.8561C28.8159 26.5122 29.3478 27.044 30.0039 27.044H32.2319C34.0338 27.044 35.4999 25.5779 35.4999 23.776V3.724C35.5 1.92203 34.034 0.455994 32.232 0.455994ZM14.408 22.588C9.53473 22.588 5.56996 18.6233 5.56996 13.75C5.56996 8.8767 9.53473 4.91194 14.408 4.91194C19.2813 4.91194 23.2461 8.8767 23.2461 13.75C23.2461 18.6233 19.2813 22.588 14.408 22.588ZM28.816 18.206C28.816 18.7804 28.3504 19.246 27.776 19.246C27.2016 19.246 26.7359 18.7804 26.7359 18.206V15.978C26.7359 15.4036 27.2016 14.938 27.776 14.938C28.3504 14.938 28.816 15.4036 28.816 15.978V18.206ZM28.816 11.5219C28.816 12.0963 28.3504 12.562 27.776 12.562C27.2016 12.562 26.7359 12.0963 26.7359 11.5219V9.29397C26.7359 8.71959 27.2016 8.25393 27.776 8.25393C28.3504 8.25393 28.816 8.71959 28.816 9.29397V11.5219Z" fill="#C8122D"/>
<path d="M17.6997 16.5113L19.1727 18.5378C20.4033 17.3132 21.1661 15.619 21.1661 13.75C21.1661 13.3841 21.1365 13.0251 21.0803 12.6749L18.6927 13.4507L17.6997 16.5113Z" fill="#C8122D"/>
<path d="M12.7989 17.7343L11.3247 19.7626C12.2496 20.2389 13.2979 20.508 14.4079 20.508C15.5179 20.508 16.5662 20.2389 17.4912 19.7626L16.0169 17.7343H12.7989Z" fill="#C8122D"/>
</svg>
