<svg width="44" height="43" viewBox="0 0 44 43" fill="none" xmlns="http://www.w3.org/2000/svg">
<path fill-rule="evenodd" clip-rule="evenodd" d="M1.57986 5.93939C2.66904 8.49794 4.54117 10.6401 6.72941 12.3265C6.72165 12.9594 6.65638 13.5996 6.59164 14.2346L6.59164 14.2346C6.57133 14.4338 6.55107 14.6325 6.53265 14.8303L6.21039 18.3519C6.18613 18.599 6.14511 18.8394 6.10536 19.0724L6.10535 19.0724C5.97167 19.8558 5.85225 20.5556 6.43222 21.1481L26.8772 41.6463C28.2091 42.9649 29.0065 43.488 30.4946 41.9838L34.9596 37.5145L41.9759 30.5274C43.7656 28.7506 43.2404 28.2511 41.9151 26.9908C41.7687 26.8516 41.6125 26.7031 41.4487 26.5426L26.3427 11.5688C26.2297 11.4567 25.9796 11.203 25.6486 10.8673C24.3203 9.51995 21.69 6.85199 21.3973 6.71869C20.9731 6.52539 19.125 6.47991 17.9238 6.45034C17.5512 6.44117 17.2408 6.43353 17.0544 6.42349L13.8039 6.2797C13.6073 6.27088 13.4112 6.26029 13.2152 6.24972L13.2152 6.24972C12.5835 6.21564 11.9539 6.18167 11.3192 6.20716C9.70457 3.94099 6.08863 0.545517 3.03309 0.890728C0.314075 1.38433 0.740333 3.96724 1.57986 5.93939ZM2.38403 4.3474C2.1405 3.38987 2.07936 2.4927 3.18932 2.20828C5.45172 2.02857 8.26058 4.41947 9.56957 6.06841C7.31359 6.04041 7.26532 6.4906 7.13777 7.68039L7.13777 7.6804C7.09715 8.05925 7.0485 8.51309 6.91797 9.05036C6.96773 9.45766 6.9347 9.88842 6.90242 10.3094C6.89076 10.4614 6.8792 10.6122 6.87168 10.7601C5.00863 9.15841 3.00192 6.77681 2.38403 4.3474ZM8.13414 11.7286C8.13051 11.1649 8.24839 7.50419 8.55531 7.36181C8.856 7.35224 9.15696 7.36057 9.4578 7.3689H9.45781H9.45781H9.45782H9.45783C9.84988 7.37975 10.2417 7.39059 10.6325 7.36181C10.7201 7.53254 10.8137 7.69977 10.9072 7.86691C11.067 8.1526 11.2267 8.43805 11.3567 8.74029C11.4131 8.87141 11.4585 9.03304 11.5061 9.20265C11.6266 9.63161 11.7614 10.1116 12.1251 10.2781C12.4477 10.4258 12.8807 10.3303 13.0123 9.97462C13.2049 9.45419 12.6741 8.41234 12.3474 7.77111C12.2958 7.66989 12.2493 7.57866 12.2116 7.50103C12.6917 7.48243 13.1731 7.51677 13.6535 7.55103H13.6535H13.6535H13.6535H13.6536C13.8513 7.56514 14.0489 7.57923 14.2462 7.58962L18.1492 7.78533C18.3358 7.79455 18.5228 7.80525 18.71 7.81597L18.7101 7.81598L18.7107 7.81601L18.7108 7.81602L18.7108 7.81602C19.3915 7.855 20.0751 7.89414 20.7542 7.8629L39.3616 26.3988C39.577 26.6135 39.813 26.839 40.0553 27.0704C40.647 27.6357 41.2759 28.2365 41.7328 28.8023C41.2918 29.3095 40.8003 29.7851 40.3123 30.2574C40.1162 30.4471 39.9207 30.6363 39.7293 30.8267L31.7723 38.8011C31.6668 38.9082 31.4992 39.0873 31.2959 39.3045L31.2956 39.3049L31.2955 39.3049L31.2954 39.305C30.5641 40.0865 29.3731 41.3591 28.9655 41.5345C28.5894 41.5151 28.2935 41.1964 28.0334 40.9161C27.9718 40.8497 27.9122 40.7855 27.854 40.7279L26.6984 39.5819L9.14711 22.022C8.98047 21.8532 8.80992 21.6862 8.63899 21.5189L8.63898 21.5189C8.21753 21.1063 7.79376 20.6915 7.42058 20.2417C7.395 19.5504 7.47652 18.837 7.5567 18.1352C7.58562 17.8821 7.61436 17.6305 7.63785 17.382L8.003 13.2163C9.30285 14.1293 10.9602 14.8598 12.4802 15.3118C12.0961 19.7164 17.9637 20.8739 19.3971 17.0979C20.0953 15.2587 19.1716 13.0915 17.3144 12.3904C15.7551 11.8018 13.5452 12.3779 12.9241 14.0648C11.3362 13.7087 9.45191 12.6794 8.13414 11.7286ZM14.192 14.3997C14.5456 13.8972 15.0863 13.5921 15.6769 13.4591C16.7535 13.3625 17.7537 13.8739 18.1719 14.9145C18.9693 16.8989 16.9736 18.6806 15.0988 17.848C14.2711 17.4116 13.7818 16.6252 13.7644 15.678C13.8323 15.6916 13.9117 15.7101 13.9984 15.7303L13.9986 15.7303L13.9987 15.7304L13.9987 15.7304C14.3974 15.8231 14.9494 15.9516 15.2418 15.809C15.5319 15.6676 15.7864 15.2537 15.5921 14.9449C15.3805 14.609 14.8514 14.5169 14.4309 14.4438C14.3456 14.4289 14.2648 14.4149 14.192 14.3997ZM25.5834 29.7033C25.7215 29.9226 26.0285 30.0119 26.274 29.9583C26.778 29.7227 26.8195 29.4487 26.7278 28.9512C26.3617 26.9638 25.8563 24.798 25.3818 22.7647C25.3123 22.4665 25.2433 22.1711 25.1756 21.8796C25.1544 21.7883 25.1362 21.6917 25.1177 21.5937C25.0119 21.0326 24.8976 20.4266 24.1653 20.5172C23.7341 20.7268 23.6691 20.9974 23.7467 21.4359C23.8595 22.0719 25.4864 29.5495 25.5834 29.7033ZM22.9617 27.1879C21.8171 27.2949 20.9098 26.2351 20.2868 25.3631C19.591 24.3891 20.3511 23.2955 21.3835 23.0401C22.355 22.9051 23.5573 24.2265 24.0522 24.9074C24.7322 25.8434 23.9513 26.9607 22.9617 27.1879ZM21.5088 24.1507C20.3487 24.4688 22.5402 26.1589 22.8117 26.1206C23.9364 25.5771 21.6835 24.1521 21.5088 24.1507ZM26.4584 25.8004C27.0243 26.6379 28.0061 27.7064 29.1142 27.5938C30.1204 27.2338 30.7847 26.1647 30.0261 25.2024C29.3664 24.3654 28.6374 23.4782 27.5375 23.5374C26.5374 23.7633 25.8144 24.8473 26.4584 25.8004ZM27.6292 24.6149C26.664 25.3306 28.7836 26.5436 28.9263 26.5151C29.9453 25.9261 27.8099 24.6002 27.6292 24.6149ZM25.5359 33.4505C26.3958 32.5173 27.3304 31.5995 28.2542 30.6922C28.6292 30.324 29.0024 29.9575 29.3682 29.5925L33.3266 25.5726C33.3765 25.6205 33.4265 25.6683 33.4766 25.7162L33.4771 25.7166L33.4771 25.7167C33.7493 25.977 34.0219 26.2377 34.2764 26.5151C33.7351 27.016 33.1988 27.5752 32.6678 28.1289L32.6678 28.129C32.3656 28.4441 32.0651 28.7574 31.7664 29.0573L26.4789 34.3866C26.3622 34.3619 25.8935 33.8445 25.6525 33.5783L25.6525 33.5782C25.6017 33.5222 25.5611 33.4773 25.5359 33.4505ZM28.8486 34.2132C28.4368 34.6234 28.0248 35.0337 27.6292 35.4584C27.6668 35.4977 27.7231 35.56 27.7898 35.634C28.0242 35.8938 28.3878 36.2968 28.5294 36.3429L28.567 36.3146C29.8606 35.047 31.135 33.7599 32.4092 32.4729C33.7108 31.1583 35.0123 29.8438 36.3342 28.5502C36.2779 28.4917 36.2105 28.4181 36.1366 28.3375C35.8925 28.071 35.5776 27.7272 35.3586 27.5939L29.5456 33.5134C29.3153 33.7483 29.082 33.9807 28.8486 34.2132Z" fill="white"/>
</svg>
