<svg width="18" height="18" viewBox="0 0 18 18" fill="none" xmlns="http://www.w3.org/2000/svg">
<path fill-rule="evenodd" clip-rule="evenodd" d="M7.33333 0.5C3.55939 0.5 0.5 3.55939 0.5 7.33333C0.5 11.1073 3.55938 14.1667 7.33333 14.1667C8.8596 14.1667 10.269 13.6663 11.4064 12.8206L15.7929 17.2071C16.1834 17.5976 16.8166 17.5976 17.2071 17.2071C17.5976 16.8166 17.5976 16.1834 17.2071 15.7929L12.8206 11.4064C13.6663 10.269 14.1667 8.8596 14.1667 7.33333C14.1667 3.55938 11.1073 0.5 7.33333 0.5ZM2.5 7.33333C2.5 4.66395 4.66395 2.5 7.33333 2.5C10.0027 2.5 12.1667 4.66396 12.1667 7.33333C12.1667 10.0027 10.0027 12.1667 7.33333 12.1667C4.66396 12.1667 2.5 10.0027 2.5 7.33333Z" fill="white"/>
</svg>
