<svg width="16" height="16" viewBox="0 0 16 16" fill="none" xmlns="http://www.w3.org/2000/svg">
<path fill-rule="evenodd" clip-rule="evenodd" d="M6.25 0.396446C2.79823 0.396446 0 3.19467 0 6.64645C0 10.0982 2.79823 12.8964 6.25 12.8964C7.61498 12.8964 8.87775 12.4589 9.90571 11.7164L13.7929 15.6036L15.2071 14.1893L11.3199 10.3022C12.0624 9.2742 12.5 8.01142 12.5 6.64645C12.5 3.19467 9.70179 0.396446 6.25 0.396446ZM2 6.64645C2 4.29924 3.90279 2.39645 6.25 2.39645C8.59721 2.39645 10.5 4.29924 10.5 6.64645C10.5 8.99366 8.59722 10.8964 6.25 10.8964C3.90279 10.8964 2 8.99366 2 6.64645Z" fill="#C2C2C2"/>
</svg>
