<svg width="13" height="13" viewBox="0 0 13 13" fill="none" xmlns="http://www.w3.org/2000/svg">
<path d="M12.25 0.75L8.45831 11.25C8.43272 11.3058 8.39163 11.3532 8.33993 11.3864C8.28822 11.4195 8.22808 11.4372 8.16665 11.4372C8.10521 11.4372 8.04507 11.4195 7.99337 11.3864C7.94166 11.3532 7.90057 11.3058 7.87498 11.25L5.83331 7.16667L1.74998 5.125C1.69413 5.09941 1.6468 5.05832 1.61362 5.00661C1.58044 4.95491 1.56281 4.89477 1.56281 4.83333C1.56281 4.7719 1.58044 4.71176 1.61362 4.66005C1.6468 4.60835 1.69413 4.56726 1.74998 4.54167L12.25 0.75Z" stroke="#666666" stroke-width="1.5" stroke-linecap="round" stroke-linejoin="round"/>
</svg>
