<svg width="16" height="12" viewBox="0 0 16 12" fill="none" xmlns="http://www.w3.org/2000/svg">
<path fill-rule="evenodd" clip-rule="evenodd" d="M0.333252 1C0.333252 0.447715 0.780967 0 1.33325 0H14.6666C15.2189 0 15.6666 0.447715 15.6666 1C15.6666 1.55228 15.2189 2 14.6666 2H1.33325C0.780967 2 0.333252 1.55228 0.333252 1ZM0.333252 6C0.333252 5.44772 0.780967 5 1.33325 5H14.6666C15.2189 5 15.6666 5.44772 15.6666 6C15.6666 6.55228 15.2189 7 14.6666 7H1.33325C0.780967 7 0.333252 6.55228 0.333252 6ZM1.33325 10C0.780967 10 0.333252 10.4477 0.333252 11C0.333252 11.5523 0.780967 12 1.33325 12H14.6666C15.2189 12 15.6666 11.5523 15.6666 11C15.6666 10.4477 15.2189 10 14.6666 10H1.33325Z" fill="white"/>
</svg>
