<svg width="44" height="33" viewBox="0 0 44 33" fill="none" xmlns="http://www.w3.org/2000/svg">
<path fill-rule="evenodd" clip-rule="evenodd" d="M28.9079 12.7228L28.9201 12.7139C29.2589 12.2625 29.2348 11.531 28.751 11.1727C28.0657 10.6647 27.1062 11.4726 27.9597 12.7139L11.3726 12.714C11.1519 12.7141 10.9297 12.7181 10.7071 12.722C10.2554 12.73 9.8019 12.738 9.35522 12.7139C10.6033 12.2364 11.8269 11.6868 13.0482 11.1383C13.4698 10.949 13.8912 10.7597 14.3132 10.5736L21.0709 7.61686C21.4614 7.44474 21.8513 7.26587 22.2418 7.08668C23.1199 6.6838 24.0014 6.27931 24.9017 5.94635C25.4936 7.32518 27.1172 6.49362 26.3099 5.30592L32.507 2.62585L34.1174 1.90479C34.2317 1.85241 34.349 1.79273 34.4673 1.7325C35.1611 1.37934 35.8916 1.00746 36.2847 1.97967C36.3525 2.14751 36.4214 2.31597 36.4905 2.48493C36.7519 3.12431 37.0163 3.77085 37.2402 4.41776C33.6903 7.34323 35.1435 13.0508 39.636 13.4141C39.9457 13.4392 40.2548 13.4319 40.5642 13.4246C40.7564 13.4201 40.9488 13.4156 41.1415 13.4188C41.1883 13.5251 41.2411 13.6435 41.2977 13.7705C41.6282 14.512 42.0896 15.5472 42.2681 16.1891C42.36 16.5198 42.2083 16.5972 41.9318 16.7384L41.9171 16.7459C41.4566 16.981 40.4032 17.421 39.2645 17.8966C37.4911 18.6372 35.5109 19.4643 35.2415 19.7385C34.814 20.1736 35.2139 21.0344 35.8367 20.8605C36.307 20.7291 36.7825 20.5125 37.2467 20.301C37.4441 20.2111 37.6395 20.1221 37.8315 20.041C39.4231 19.3689 41.033 18.6825 42.5939 17.9418C44.2933 17.1353 43.5698 15.5642 42.9718 14.2657C42.8723 14.0496 42.7762 13.841 42.6954 13.6448C42.5598 13.3156 42.4663 13.0459 42.3903 12.8266C42.0738 11.9137 42.0608 11.8761 40.576 12.0632C36.9402 12.5212 35.1966 7.91335 37.759 5.77995C37.8264 5.72383 37.9229 5.65845 38.0296 5.58606C38.3523 5.36732 38.7694 5.08448 38.7667 4.7992C38.7627 4.39526 37.5156 1.29963 37.2989 0.931666C36.8896 0.236627 36.0381 -0.0534118 35.2678 0.0079944C34.6165 0.119662 33.6005 0.604779 32.797 0.988405C32.5642 1.09956 32.3492 1.20219 32.1661 1.28475L8.15862 11.8169C7.88542 11.9398 7.65789 12.048 7.4586 12.1429C6.57164 12.5649 6.244 12.7208 4.93854 12.7172L3.13841 12.7123C0.0112269 12.7059 0.0222236 13.9259 0.04359 16.2964C0.0454291 16.5004 0.047345 16.7129 0.0473432 16.934C0.0473366 18.1171 -0.0859593 18.5957 0.0948104 18.8571C0.238649 19.0652 0.581335 19.1358 1.34824 19.3144C3.78916 19.8829 4.78045 22.7775 3.40806 24.7995C2.6016 25.9877 1.60534 26.1751 0.915338 26.3049C0.543779 26.3748 0.261023 26.428 0.144527 26.6118C-0.0359537 26.8964 0.0261439 30.1946 0.0695384 30.7429C0.227325 32.736 2.12446 32.7146 3.60328 32.6979C3.73426 32.6964 3.86195 32.695 3.98487 32.695L30.5546 32.694C30.7121 32.6943 30.876 32.6985 31.0432 32.7027C32.2098 32.7323 33.5428 32.7661 34.075 31.5083C34.3556 30.8449 34.3428 27.9082 34.2705 26.9706C34.2233 26.3597 33.7788 26.3135 33.3224 26.2661C33.2059 26.254 33.0886 26.2418 32.9769 26.2201C29.1723 25.4812 29.3843 19.9767 32.8938 19.3201C33.0024 19.2998 33.1199 19.2903 33.2389 19.2806C33.6285 19.2489 34.0337 19.216 34.1901 18.7997C34.3511 18.3707 34.3143 17.5405 34.2852 16.8856C34.2756 16.67 34.2669 16.4734 34.2663 16.3164C34.2658 16.1611 34.2689 16.0005 34.272 15.8373C34.295 14.6399 34.3206 13.2985 32.9508 12.8324C32.3869 12.6407 29.7049 12.6673 28.9254 12.7401L28.9079 12.7228ZM4.54104 14.0565L23.656 14.0571C23.8487 14.0438 24.0425 14.049 24.2357 14.0542C24.2731 14.0553 24.3105 14.0563 24.3478 14.0571C24.3735 15.4731 25.6909 15.4265 25.8693 14.0571C26.8038 14.0412 27.7401 14.0463 28.6759 14.0514C29.1437 14.054 29.6114 14.0565 30.0787 14.0564L31.4985 14.0569C32.9484 14.0582 32.9437 14.2745 32.9212 15.3118C32.9182 15.4516 32.9149 15.6063 32.9147 15.7774L32.9115 17.9672C27.8513 18.6947 27.0333 26.098 32.9115 27.6255L32.9152 29.5957C32.9245 31.474 32.6008 31.4561 31.3113 31.385C31.0175 31.3688 30.6735 31.3498 30.272 31.3499L25.8693 31.3492C25.6499 30.2892 24.3521 30.2438 24.3478 31.3492H12.7504L3.34082 31.3514C3.2214 31.3516 3.1092 31.3524 3.0038 31.3532C1.57357 31.3639 1.39348 31.3653 1.39512 29.513L1.39842 27.6255C6.87741 26.5239 6.44498 18.6687 1.39842 17.9672L1.39413 15.7826C1.394 15.7021 1.39068 15.6133 1.38718 15.5199C1.36487 14.9239 1.33542 14.1375 2.08154 14.0749C2.65047 14.0272 3.2399 14.0377 3.82213 14.048C4.06366 14.0522 4.30396 14.0565 4.54104 14.0565ZM19.6614 18.2231C18.9707 18.498 13.3164 24.3735 12.5709 25.1488L10.5063 23.0988C10.4358 23.0279 10.3494 22.929 10.2522 22.8178C9.90871 22.4246 9.43028 21.8769 9.04042 21.8676C8.6857 21.8592 8.36378 22.2047 8.37046 22.5538C8.37726 22.9066 8.73074 23.2347 9.00687 23.491C9.05466 23.5354 9.10013 23.5776 9.14109 23.6174L11.1279 25.599C11.2988 25.7691 11.4467 25.9222 11.5772 26.0574C12.5483 27.0627 12.5602 27.075 13.9288 25.6966L18.4751 21.109C18.5503 21.0341 18.6699 20.9246 18.814 20.7927C19.4279 20.231 20.4874 19.2615 20.4616 18.8094C20.4378 18.3903 20.0325 18.2034 19.6614 18.2231Z" fill="white"/>
</svg>
