<svg width="200" height="42" viewBox="0 0 200 42" fill="none" xmlns="http://www.w3.org/2000/svg">
<g clip-path="url(#clip0_118_2605)">
<path d="M16.3441 14.195H13.3354L15.2173 3.13257H18.2257L16.3441 14.195Z" fill="#BCBCBC"/>
<path d="M27.2501 3.40285C26.6567 3.17902 25.7155 2.93188 24.5516 2.93188C21.5805 2.93188 19.4883 4.43818 19.4755 6.59173C19.4508 8.18062 20.9735 9.06315 22.1123 9.59287C23.2763 10.1343 23.672 10.4876 23.672 10.9702C23.6601 11.7112 22.7314 12.0529 21.8651 12.0529C20.664 12.0529 20.0204 11.8768 19.0423 11.4644L18.6461 11.2877L18.2251 13.771C18.9308 14.0766 20.2308 14.3479 21.5805 14.3597C24.7374 14.3597 26.7926 12.8767 26.817 10.5817C26.829 9.3225 26.0249 8.35755 24.2915 7.569C23.2393 7.06286 22.5948 6.72156 22.5948 6.20366C22.6072 5.73285 23.1399 5.25061 24.3278 5.25061C25.3058 5.227 26.0245 5.45051 26.5689 5.67419L26.841 5.79166L27.2501 3.40285Z" fill="#BCBCBC"/>
<path d="M31.2486 10.276C31.4964 9.6405 32.4498 7.1808 32.4498 7.1808C32.4373 7.20442 32.6971 6.53355 32.8456 6.1217L33.0559 7.07491C33.0559 7.07491 33.6257 9.72292 33.7493 10.276C33.2792 10.276 31.8429 10.276 31.2486 10.276ZM34.9624 3.13257H32.6352C31.9176 3.13257 31.3723 3.33247 31.0627 4.05043L26.5938 14.1949H29.7507C29.7507 14.1949 30.2703 12.8295 30.3821 12.5354C30.7284 12.5354 33.7994 12.5354 34.2449 12.5354C34.3313 12.9238 34.6039 14.1949 34.6039 14.1949H37.3896L34.9624 3.13257Z" fill="#BCBCBC"/>
<path d="M10.8216 3.13257L7.87517 10.6761L7.5532 9.14617C7.00846 7.38086 5.30005 5.46287 3.39355 4.50919L6.09239 14.1832H9.27392L14.003 3.13257H10.8216Z" fill="#BCBCBC"/>
<path d="M5.14013 3.13257H0.299521L0.25 3.35608C4.02598 4.2741 6.52673 6.48694 7.55418 9.14662L6.50189 4.06247C6.32864 3.35593 5.79625 3.15587 5.14013 3.13257Z" fill="#BCBCBC"/>
<path d="M64.3941 3.42078H58.2944V13.6248H64.3941V3.42078Z" fill="#FF5F00"/>
<path d="M58.9237 8.52465C58.923 7.54208 59.1405 6.57224 59.5597 5.68847C59.9789 4.8047 60.5889 4.03019 61.3435 3.42354C60.4089 2.67121 59.2865 2.20338 58.1045 2.07352C56.9226 1.94366 55.7288 2.15701 54.6596 2.68918C53.5905 3.22136 52.689 4.05089 52.0584 5.08296C51.4277 6.11504 51.0933 7.30802 51.0933 8.52555C51.0933 9.7431 51.4277 10.9361 52.0584 11.9682C52.689 13.0003 53.5905 13.8298 54.6596 14.362C55.7288 14.8941 56.9226 15.1075 58.1045 14.9776C59.2865 14.8478 60.4089 14.3799 61.3435 13.6276C60.5887 13.0208 59.9785 12.2459 59.5593 11.3618C59.1401 10.4777 58.9227 9.50753 58.9237 8.52465Z" fill="#EB001B"/>
<path d="M71.5955 8.52352C71.5954 9.74115 71.2609 10.9342 70.6301 11.9663C69.9994 12.9985 69.0978 13.828 68.0285 14.3601C66.9592 14.8921 65.7653 15.1054 64.5833 14.9753C63.4013 14.8453 62.2788 14.3772 61.3442 13.6247C62.0986 13.0174 62.7084 12.2428 63.1277 11.3589C63.5471 10.4751 63.7649 9.50527 63.7649 8.52262C63.7649 7.53997 63.5471 6.57018 63.1277 5.68636C62.7084 4.80254 62.0986 4.02781 61.3442 3.42063C62.2788 2.66806 63.4013 2.2 64.5833 2.06995C65.7653 1.93991 66.9592 2.15312 68.0285 2.68522C69.0978 3.21732 69.9994 4.04683 70.6301 5.07894C71.2609 6.11105 71.5954 7.30411 71.5955 8.52172V8.52352Z" fill="#F79E1B"/>
<path d="M98.7002 13.6204H92.9934V3.36401H98.7002V13.6204Z" fill="#6C6BBD"/>
<path d="M93.3595 8.49179C93.3595 6.41127 94.333 4.55797 95.8502 3.36363C94.741 2.49027 93.3407 1.96899 91.819 1.96899C88.2175 1.96899 85.297 4.88931 85.297 8.49179C85.297 12.0943 88.2175 15.0146 91.819 15.0146C93.3407 15.0146 94.741 14.4934 95.8502 13.62C94.333 12.4257 93.3595 10.5724 93.3595 8.49179Z" fill="#EB001B"/>
<path d="M106.397 8.49142C106.397 12.094 103.478 15.0142 99.8755 15.0142C98.3537 15.0142 96.9542 14.493 95.8442 13.6196C97.3615 12.4253 98.3357 10.572 98.3357 8.49142C98.3357 6.4109 97.3615 4.55761 95.8442 3.36327C96.9542 2.48991 98.3537 1.96863 99.8755 1.96863C103.478 1.96863 106.397 4.88895 106.397 8.49142Z" fill="#0099DF"/>
<path fill-rule="evenodd" clip-rule="evenodd" d="M123.989 2.93309C124.365 2.93087 125.481 2.83157 125.953 4.40774C126.272 5.46947 126.78 7.20863 127.476 9.6252H127.759C128.506 7.07749 129.019 5.33832 129.298 4.40774C129.776 2.81515 130.97 2.93312 131.448 2.93312L135.134 2.93312V14.2583H131.377V7.58415H131.125L129.031 14.2583H126.204L124.11 7.5792H123.858V14.2583H120.101V2.93312L123.989 2.93309ZM140.529 2.93312V9.61215H140.829L143.376 4.12004C143.871 3.02708 144.925 2.93312 144.925 2.93312H148.561V14.2583H144.725V7.5792H144.426L141.928 13.0713C141.433 14.1593 140.329 14.2583 140.329 14.2583H136.694V2.93312H140.529ZM161.818 8.31488C161.283 9.81225 159.603 10.8847 157.743 10.8847H153.72V14.2583H150.073V8.31488H161.818Z" fill="#BCBCBC"/>
<path fill-rule="evenodd" clip-rule="evenodd" d="M157.92 2.93335H149.883C150.074 5.45471 152.272 7.61318 154.548 7.61318H162.072C162.507 5.51761 161.012 2.93335 157.92 2.93335Z" fill="url(#paint0_linear_118_2605)"/>
<path fill-rule="evenodd" clip-rule="evenodd" d="M95.11 27.6725V31.3977H96.727C97.2175 31.4089 97.6412 31.342 97.9982 31.2193C98.3439 31.0966 98.6229 30.8958 98.8014 30.617C98.9799 30.3382 99.0805 29.9701 99.0805 29.5128C99.0805 28.8882 98.902 28.4309 98.5337 28.1298C98.1767 27.8287 97.597 27.6725 96.8275 27.6725H95.11ZM95.11 36.7848V33.093H96.7157C97.6975 33.093 98.545 32.9703 99.2252 32.7362C99.9055 32.5019 100.441 32.1227 100.82 31.5985C101.199 31.0743 101.389 30.3828 101.389 29.5128C101.389 28.3417 101.01 27.4606 100.24 26.8806C99.4705 26.2895 98.2997 25.9995 96.727 25.9995H95.11H93.9497H92.8457V36.7848H95.11ZM110.567 35.8248V35.8266C110.579 36.1388 110.612 36.4621 110.645 36.7854L108.47 36.7858C108.448 36.7077 108.415 36.5851 108.381 36.44C108.337 36.2951 108.314 36.1501 108.292 36.0051H108.214C108.024 36.1501 107.824 36.2951 107.589 36.4289C107.355 36.5739 107.065 36.6854 106.719 36.7635C106.373 36.8528 105.95 36.8973 105.459 36.8973C104.589 36.8973 103.898 36.6854 103.373 36.2616C102.849 35.8378 102.593 35.2355 102.593 34.4659C102.593 33.8525 102.771 33.3617 103.117 32.9825C103.463 32.6033 104.009 32.3133 104.734 32.1461C105.459 31.9787 106.418 31.8784 107.578 31.8784H108.292V31.5661C108.292 31.2984 108.225 31.0753 108.08 30.8969C107.935 30.7184 107.735 30.5957 107.456 30.5288C107.177 30.4619 106.853 30.4284 106.451 30.4284C106.039 30.4284 105.626 30.4619 105.203 30.5288C104.779 30.5957 104.399 30.6849 104.065 30.7965C103.73 30.908 103.451 31.0196 103.24 31.1311V29.5139C103.586 29.3354 104.065 29.1792 104.678 29.0566C105.292 28.9227 105.995 28.867 106.797 28.867C107.645 28.867 108.348 28.9451 108.894 29.1235C109.441 29.2908 109.853 29.5808 110.132 29.9823C110.411 30.3838 110.545 30.9191 110.545 31.5772V34.8786C110.545 35.2014 110.556 35.5131 110.567 35.8248ZM108.303 33.1944H107.634C106.964 33.1944 106.43 33.2279 106.028 33.306C105.626 33.384 105.336 33.5067 105.158 33.674C104.979 33.8525 104.89 34.0867 104.89 34.3878C104.89 34.6109 104.946 34.8116 105.047 34.9678C105.146 35.1239 105.314 35.2466 105.526 35.3359C105.738 35.4251 106.016 35.4809 106.352 35.4809C106.797 35.4809 107.177 35.4028 107.511 35.2578C107.834 35.1128 108.102 34.9121 108.314 34.6556V33.1944H108.303ZM113.156 37.365V38.9822C113.568 39.1273 114.003 39.1942 114.461 39.183C114.929 39.183 115.352 39.1273 115.698 39.0269C116.055 38.9265 116.368 38.7592 116.646 38.525C116.925 38.2907 117.17 38.012 117.405 37.6661C117.628 37.3204 117.84 36.9189 118.04 36.4393L121.197 28.9778H119.055L116.773 34.8236L114.338 28.9778H111.995L115.575 36.9623C115.525 37.0435 115.473 37.1183 115.42 37.1866C115.297 37.3427 115.141 37.4654 114.962 37.5435C114.784 37.6216 114.56 37.655 114.293 37.655C114.037 37.655 113.825 37.6327 113.646 37.577C113.456 37.5323 113.3 37.4543 113.156 37.365Z" fill="#BCBCBC"/>
<path d="M90.3869 32.1929C90.3869 28.1504 87.1099 24.8734 83.0675 24.8734C79.0251 24.8734 75.748 28.1504 75.748 32.1929C75.748 36.2353 79.0251 39.5123 83.0675 39.5123C87.1099 39.5123 90.3869 36.2353 90.3869 32.1929Z" fill="#FC3F1D"/>
<path d="M84.0978 36.5916H85.6271V27.8082H83.4026C81.1653 27.8082 79.9901 28.9583 79.9901 30.6518C79.9901 32.004 80.6351 32.8002 81.7848 33.6217L79.7883 36.5916H81.4436L83.6681 33.2679L82.8971 32.7497C81.9618 32.1178 81.5066 31.6249 81.5066 30.5633C81.5066 29.6281 82.1643 28.9962 83.4153 28.9962H84.0978V36.5916Z" fill="white"/>
<path fill-rule="evenodd" clip-rule="evenodd" d="M161.837 26.6309V36.8312H164.933V34.1446H169.073C171.147 34.1446 172.829 32.4626 172.829 30.3877C172.829 28.3129 171.147 26.6309 169.073 26.6309H161.837ZM168.585 29.1669H164.894V31.7072H168.585C169.286 31.7072 169.855 31.1385 169.855 30.437C169.855 29.7356 169.286 29.1669 168.585 29.1669Z" fill="#BCBCBC"/>
<path fill-rule="evenodd" clip-rule="evenodd" d="M172.418 36.8304L176.56 26.7469H180.848L184.99 36.8304H181.916L181.31 35.3539H176.098L175.491 36.8304H172.418ZM178.703 29.0112L176.989 33.1859H180.419L178.703 29.0112Z" fill="#BCBCBC"/>
<path d="M183.909 26.7469H187.397L189.913 30.8653L192.429 26.7469H195.916L191.49 33.9921V36.8305H188.336V33.9921L183.909 26.7469Z" fill="#BCBCBC"/>
<path d="M157.795 31.2121L158.076 30.3175L157.146 30.3465C157.068 30.3465 156.496 30.3304 155.942 29.931C155.984 29.935 156.025 29.9407 156.067 29.9407C156.637 29.9407 157.189 29.5992 157.41 29.1112L157.811 28.2295C157.309 28.2359 156.851 28.1731 156.851 28.1731C156.846 28.1723 156.485 28.1264 156.067 27.7021C155.767 27.3976 155.396 27.2366 154.994 27.2366C154.818 27.2366 154.661 27.268 154.526 27.3107C154.547 27.239 154.567 27.1666 154.578 27.0917C154.707 26.2663 154.172 25.6374 154.172 25.6374L153.472 24.7766L153.039 25.788C153.037 25.7912 152.928 26.0279 152.732 26.1439C152.673 25.8468 152.527 25.5126 152.217 25.1929C151.632 24.5905 150.92 24.5012 150.547 24.5012C150.375 24.5012 150.251 24.5197 150.221 24.5245L149.377 24.6896C149.425 24.502 149.529 24.1759 149.719 23.8819L150.185 23.1604L149.012 23.2933L148.638 22.505L147.916 22.8754L147.247 22.2191L146.58 22.8754L145.855 22.505L145.482 23.2933L144.311 23.1604L144.777 23.8819C144.967 24.1759 145.071 24.5012 145.119 24.6888L144.313 24.531L144.285 24.5262C144.245 24.5197 144.123 24.5012 143.949 24.5012C143.577 24.5012 142.864 24.5914 142.281 25.1929C141.969 25.5118 141.825 25.8468 141.765 26.1439C141.57 26.0296 141.462 25.796 141.462 25.796L141.027 24.779L140.316 25.6454C140.23 25.7574 139.801 26.3492 139.918 27.0933C139.93 27.1674 139.95 27.2398 139.971 27.3115C139.836 27.2689 139.679 27.2374 139.503 27.2374C139.101 27.2374 138.73 27.3985 138.429 27.7028C138.012 28.1257 137.653 28.1731 137.656 28.1731C137.656 28.1731 137.276 28.2408 136.688 28.2303L137.085 29.1121C137.307 29.6008 137.859 29.9414 138.429 29.9414C138.472 29.9414 138.513 29.9358 138.555 29.9317C138.003 30.3312 137.432 30.3473 137.363 30.3481L136.415 30.3175L136.701 31.2113C136.846 31.6719 137.328 32.4353 138.252 32.5174C138.151 32.9362 137.928 33.4048 137.439 33.6069L136.733 33.896L137.118 34.5619C137.335 34.921 137.845 35.3414 138.571 35.3414C138.728 35.3407 138.879 35.3253 139.026 35.2948C139.063 35.459 139.11 35.6233 139.165 35.7859C139.381 36.4253 139.195 36.8714 139.193 36.8762L138.844 37.6018L139.622 37.8055C139.632 37.8087 139.866 37.8724 140.161 37.8724C140.295 37.8724 140.422 37.8586 140.542 37.8304C140.632 37.8095 140.719 37.7813 140.802 37.7475C140.903 37.927 141.026 38.0905 141.168 38.2371C141.666 38.7452 142.372 39.0029 143.267 39.0029H143.27L143.909 38.9948L142.59 39.5392L143.591 40.0199C143.955 40.1963 144.387 40.4048 144.826 40.5643L144.701 40.9041L145.047 41.0603C145.077 41.074 145.741 41.3695 146.844 41.4323C146.844 41.4323 147.111 41.4444 147.258 41.4444C147.405 41.4444 147.668 41.4315 147.668 41.4315C148.764 41.3671 149.423 41.0748 149.454 41.0603L149.8 40.9033L149.673 40.5626C150.126 40.3984 150.573 40.1818 150.921 40.0126L151.905 39.5383L150.589 38.9932L151.23 39.0013C152.125 39.0013 152.832 38.7436 153.33 38.2347C153.471 38.089 153.594 37.9255 153.695 37.7459C153.779 37.7797 153.866 37.8079 153.957 37.8288C154.076 37.857 154.203 37.8707 154.337 37.8707C154.626 37.8707 154.863 37.8071 154.87 37.8055L155.651 37.6001L155.311 36.8883C155.303 36.8698 155.116 36.4245 155.333 35.7844C155.388 35.6209 155.434 35.4565 155.472 35.2931C155.618 35.3237 155.771 35.3398 155.929 35.3398C156.854 35.3398 157.297 34.6932 157.383 34.5531L157.764 33.8944L157.058 33.6061C156.567 33.404 156.345 32.9345 156.246 32.5166C157.157 32.4394 157.647 31.6759 157.795 31.2121ZM145.18 24.9972L145.17 24.9997L145.179 24.9892L145.18 24.9972Z" fill="white"/>
<path d="M147.247 24.9565C146.5 24.9573 145.94 25.2005 145.818 25.4863L147.247 26.0468L148.677 25.4863C148.555 25.2005 147.995 24.9573 147.247 24.9565Z" fill="white"/>
<path d="M147.264 39.7934H147.263H147.251H147.237H147.237C146.784 39.7966 146.16 39.704 145.86 39.6171L145.498 40.5889C145.737 40.6735 146.544 40.8346 147.251 40.8346C147.957 40.8346 148.764 40.6727 149.002 40.5889L148.641 39.6171C148.34 39.7047 147.717 39.7966 147.264 39.7934Z" fill="white"/>
<path d="M149.995 38.8282C149.726 38.9797 149.126 39.2067 148.776 39.3122L149.069 40.115C149.61 39.9685 150.056 39.7969 150.425 39.6133L149.816 39.412L149.995 38.8282Z" fill="white"/>
<path d="M144.501 38.8282L144.681 39.412L144.072 39.6133C144.439 39.7969 144.888 39.9685 145.425 40.115L145.719 39.3122C145.371 39.2067 144.77 38.9788 144.501 38.8282Z" fill="white"/>
<path d="M147.247 24.0288C147.81 24.0288 148.363 24.1625 148.787 24.3976C148.826 24.2679 148.88 24.1109 148.954 23.9467L148.794 23.966L148.625 23.9837L148.554 23.8315L148.339 23.3805L147.948 23.5835L147.795 23.6608L147.674 23.5416L147.248 23.1229L146.824 23.5416L146.702 23.6608L146.55 23.5835L146.156 23.3805L145.944 23.8315L145.871 23.9837L145.703 23.966L145.542 23.9467C145.616 24.1117 145.669 24.2679 145.709 24.3976C146.134 24.1625 146.685 24.0288 147.247 24.0288Z" fill="white"/>
<path d="M155.846 29.2407C155.919 29.2657 155.993 29.2769 156.067 29.2769C156.386 29.2769 156.694 29.0724 156.8 28.838C156.8 28.838 156.215 28.8026 155.588 28.1689C155.387 27.9635 155.176 27.9023 154.994 27.9023C154.712 27.9023 154.501 28.0505 154.501 28.0505C155.259 28.4516 155.414 29.0957 155.846 29.2407Z" fill="white"/>
<path d="M138.429 29.2769C138.503 29.2769 138.578 29.2657 138.649 29.2407C139.082 29.0957 139.238 28.4516 139.997 28.0505C139.997 28.0505 139.784 27.9023 139.504 27.9023C139.322 27.9023 139.11 27.9635 138.909 28.1689C138.282 28.8026 137.698 28.838 137.698 28.838C137.802 29.0724 138.111 29.2769 138.429 29.2769Z" fill="white"/>
<path d="M156.052 31.8573C156.065 31.858 156.076 31.8581 156.09 31.8581C156.885 31.8581 157.155 31.0117 157.155 31.0117H157.14C156.993 31.0117 155.811 30.9779 154.976 29.9222C154.426 29.2281 153.975 28.6178 153.084 28.3778L152.997 28.3625L152.978 28.274C152.953 28.1387 153.047 28.0122 153.258 27.8753C154.487 27.0757 153.653 26.0563 153.653 26.0563C153.653 26.0563 153.302 26.872 152.517 26.872C152.498 26.872 152.478 26.8712 152.458 26.8712C152.369 26.8664 152.283 26.8631 152.196 26.8446L152.052 26.8164C152.052 26.8164 152.275 26.2117 151.735 25.6561C151.329 25.2365 150.834 25.1656 150.548 25.1656C150.403 25.1656 150.312 25.1842 150.312 25.1842C150.583 25.5369 150.78 26.1215 150.465 26.4822C150.195 26.7923 149.534 26.8075 149.534 27.2698C149.534 27.4654 149.718 27.6941 150.048 27.8995C151.043 28.5219 152.03 29.3474 152.439 30.4537C152.952 31.8339 152.375 32.7495 151.55 33.2745C151.55 33.2745 151.809 33.5112 152.184 33.5411C152.26 33.5483 152.334 33.5515 152.404 33.5515C153.195 33.5515 153.605 33.1827 153.605 33.1827C153.605 33.1827 153.537 33.6924 153.125 34.1659C152.745 34.6031 152.246 34.8601 151.485 34.8713C151.485 34.8713 151.461 35.2224 151.798 35.526C152.013 35.7176 152.512 35.7805 152.512 35.7805C152.512 35.7805 151.579 35.9681 151.476 37.337C151.42 38.0786 151.23 38.3363 151.23 38.3363H151.247C153.411 38.3363 153.355 36.4915 153.355 36.4915C153.355 36.4915 153.506 37.0374 154.11 37.1799C154.182 37.1993 154.26 37.2065 154.335 37.2065C154.53 37.2065 154.698 37.1614 154.698 37.1614C154.698 37.1614 154.382 36.4987 154.695 35.5719C154.956 34.8028 154.914 34.2327 154.914 34.2327C154.914 34.2327 155.205 34.6708 155.928 34.6748H155.935C156.537 34.6748 156.8 34.2215 156.8 34.2215C155.357 33.6264 155.499 31.7051 155.499 31.7051C155.499 31.7051 155.687 31.8436 156.052 31.8573ZM155.618 33.8639C155.031 33.5765 154.66 32.8131 154.57 32.5377C154.473 34.0516 153.729 35.1024 152.859 36.1138C152.408 36.638 152.251 37.1477 152.251 37.1477C152.251 37.1477 152.337 36.5704 152.728 36.1001C153.54 35.1314 154.31 33.9259 154.368 32.5321C154.407 31.5593 154.155 30.7702 153.762 30.1204C153.981 30.7975 153.951 31.627 153.204 32.4008C153.204 32.4008 154.69 30.6317 152.613 28.8183C151.782 28.1282 150.873 27.7022 150.404 27.4002C152.096 27.9486 152.922 27.3446 152.922 27.3446C152.382 27.8101 151.682 27.8021 151.248 27.7352C151.366 27.7924 151.488 27.852 151.62 27.9221C153.047 28.6919 154.329 29.9584 154.548 31.7131V31.6994C154.88 33.4219 155.618 33.8639 155.618 33.8639Z" fill="white"/>
<path d="M141.983 35.7805C141.983 35.7805 142.482 35.7184 142.697 35.526C143.033 35.2224 143.01 34.8713 143.01 34.8713C142.248 34.8609 141.75 34.6031 141.368 34.1667C140.958 33.6932 140.891 33.1835 140.891 33.1835C140.891 33.1835 141.299 33.5523 142.091 33.5523C142.162 33.5523 142.235 33.5491 142.312 33.5419C142.687 33.512 142.946 33.2753 142.946 33.2753C142.121 32.7503 141.542 31.8339 142.055 30.4537C142.466 29.3481 143.452 28.5219 144.446 27.8995C144.776 27.6941 144.961 27.4662 144.961 27.2698C144.961 26.8075 144.3 26.7923 144.029 26.4822C143.716 26.1215 143.913 25.5361 144.183 25.1842C144.183 25.1842 144.094 25.1656 143.948 25.1656C143.663 25.1656 143.168 25.2365 142.761 25.6561C142.22 26.2117 142.445 26.8164 142.445 26.8164L142.299 26.8446C142.213 26.8631 142.126 26.8664 142.037 26.8712C142.018 26.8712 142 26.872 141.98 26.872C141.194 26.872 140.844 26.0571 140.844 26.0571C140.844 26.0571 140.01 27.0765 141.238 27.8761C141.449 28.013 141.542 28.1395 141.518 28.2747L141.498 28.3633L141.409 28.3786C140.52 28.6186 140.069 29.229 139.518 29.923C138.685 30.9771 137.504 31.0117 137.357 31.0117H137.34C137.34 31.0117 137.61 31.8581 138.405 31.8581C138.418 31.8581 138.429 31.858 138.443 31.8573C138.809 31.8443 138.997 31.7051 138.997 31.7051C138.997 31.7051 139.138 33.6256 137.696 34.2215C137.696 34.2215 137.959 34.6748 138.56 34.6748H138.568C139.292 34.6708 139.583 34.2327 139.583 34.2327C139.583 34.2327 139.541 34.8028 139.799 35.5719C140.113 36.4987 139.799 37.1614 139.799 37.1614C139.799 37.1614 139.967 37.2065 140.161 37.2065C140.237 37.2065 140.313 37.1993 140.385 37.1799C140.988 37.0374 141.14 36.4915 141.14 36.4915C141.14 36.4915 141.085 38.3363 143.249 38.3363H143.264C143.264 38.3363 143.075 38.0786 143.02 37.337C142.916 35.9681 141.983 35.7805 141.983 35.7805ZM141.636 36.1138C140.766 35.1024 140.024 34.0516 139.925 32.5377C139.835 32.8123 139.466 33.5765 138.879 33.8639C138.879 33.8639 139.616 33.4219 139.948 31.6994V31.7131C140.168 29.9593 141.449 28.6919 142.876 27.9221C143.006 27.8511 143.13 27.7916 143.247 27.7352C142.813 27.8021 142.114 27.8101 141.573 27.3446C141.573 27.3446 142.399 27.9486 144.09 27.4002C143.622 27.7022 142.714 28.1282 141.882 28.8183C139.805 30.6317 141.29 32.4008 141.29 32.4008C140.543 31.6261 140.513 30.7975 140.733 30.1204C140.339 30.7709 140.088 31.5593 140.129 32.5321C140.186 33.9259 140.956 35.1314 141.765 36.1001C142.157 36.5695 142.245 37.1477 142.245 37.1477C142.245 37.1477 142.086 36.638 141.636 36.1138Z" fill="white"/>
<path d="M145.647 29.0367C145.683 29.0745 145.718 29.1156 145.752 29.1567C145.759 29.1664 145.767 29.1751 145.775 29.1865C145.806 29.2275 145.837 29.271 145.867 29.3153C145.874 29.3242 145.88 29.3346 145.887 29.3451C145.924 29.3998 145.958 29.4562 145.992 29.5141C146.304 30.0497 146.804 30.3694 147.247 30.3702C147.691 30.3694 148.19 30.0497 148.503 29.5141C148.538 29.4546 148.573 29.3966 148.609 29.3427C148.615 29.3346 148.62 29.3274 148.626 29.3193C148.656 29.2734 148.689 29.2283 148.723 29.1848C148.73 29.1751 148.737 29.1671 148.743 29.1591C148.778 29.1164 148.814 29.0745 148.85 29.0359C148.857 29.0294 148.861 29.0238 148.867 29.0189C149.026 28.8571 149.216 28.7339 149.463 28.6654L149.353 28.6018H149.346L148.908 28.3482L148.456 28.0913L147.25 28.7435L147.247 28.7411L147.245 28.7435L146.038 28.0913L145.587 28.3474L145.148 28.601H145.143L145.031 28.6646C145.28 28.7331 145.468 28.8547 145.628 29.0166C145.635 29.023 145.641 29.0302 145.647 29.0367ZM146.76 28.9843H147.27H147.78V29.3322C147.66 29.1865 147.426 29.2162 147.426 29.2162V29.7179C147.426 29.7179 147.435 29.9643 147.522 30.0715H147.27H147.017C147.105 29.9651 147.114 29.7179 147.114 29.7179V29.2162C147.114 29.2162 146.881 29.1865 146.76 29.3322V28.9843Z" fill="white"/>
<path d="M147.144 28.3086V26.2722L145.839 25.8325L146.183 27.8062L147.144 28.3086ZM146.864 26.7723V27.0991L146.801 27.0702C146.797 27.0678 146.705 27.0468 146.543 26.9196C146.275 26.7135 146.27 26.5234 146.27 26.5234L146.864 26.7723Z" fill="white"/>
<path d="M148.311 27.8062L148.653 25.8325L147.35 26.2722V28.3086L148.311 27.8062ZM147.63 26.7723L148.223 26.5242C148.223 26.5242 148.218 26.7142 147.95 26.9204C147.789 27.0477 147.696 27.0685 147.693 27.071L147.63 27.1V26.7723H147.63Z" fill="white"/>
<path d="M145.303 33.0306C145.43 33.0765 145.584 33.0862 145.663 33.0862C145.666 33.0765 145.67 33.0644 145.674 33.05C145.682 33.0266 145.688 33.0041 145.693 32.9783C145.715 32.8655 145.723 32.7375 145.724 32.6554C145.671 32.6223 145.595 32.5636 145.553 32.4758C145.505 32.3744 145.436 32.3276 145.334 32.3276C145.203 32.3276 145.062 32.4058 145.002 32.4428C144.955 32.7238 145.163 32.9791 145.303 33.0306Z" fill="white"/>
<path d="M148.181 31.9493C147.939 32.211 147.465 32.6669 147.441 32.6902L147.413 32.7191L145.915 32.6958C145.914 32.8432 145.889 32.9688 145.866 33.0605C145.862 33.0759 145.858 33.092 145.854 33.1081L147.637 33.4262C147.822 33.2973 148.333 32.9269 148.53 32.782C148.386 32.5726 148.373 32.3246 148.405 32.1498C148.311 32.0894 148.238 32.0219 148.181 31.9493Z" fill="white"/>
<path d="M148.39 30.1595C148.045 30.5002 147.713 30.6258 147.417 30.6547C147.364 30.6604 147.31 30.6636 147.254 30.6636H147.251H147.248C147.192 30.6636 147.137 30.6604 147.083 30.6547C147.032 30.6499 146.978 30.6418 146.923 30.6298C146.903 30.7063 146.879 30.8665 146.949 31.0179C147.011 31.1556 147.139 31.2578 147.324 31.3255L147.386 31.3497L147.388 31.4165C147.388 31.4366 147.402 31.8698 147.878 31.9898C147.956 31.9101 148.026 31.8385 148.078 31.7789C147.98 31.5518 148.031 31.3198 148.172 31.2064C148.166 31.2305 148.105 31.799 148.563 32.01L148.639 32.0455L148.616 32.1251C148.609 32.1493 148.456 32.6992 149.011 32.9038L149.108 32.9408L149.065 33.0358C149.055 33.0568 148.837 33.556 149.35 33.8395H150.463V32.9618C150.068 32.9135 149.9 32.5978 149.857 32.3739C149.672 32.3425 149.53 32.2636 149.433 32.1348C149.199 31.8296 149.4 31.5502 149.403 31.5349C149.402 31.5373 149.403 31.8352 149.588 32.0188C149.679 32.1074 149.788 32.1758 149.952 32.1911L150.033 32.1984L150.041 32.2805C150.042 32.2982 150.086 32.7009 150.464 32.7645L150.463 30.9721C150.463 30.6942 150.545 30.4147 150.643 30.1571H148.39V30.1595Z" fill="white"/>
<path d="M145.391 30.9796L145.361 32.1214L145.492 32.1407L145.811 31.0456L145.649 30.709L145.391 30.9796Z" fill="white"/>
<path d="M148.912 36.2166C148.922 36.2166 148.933 36.2182 148.943 36.2206C149.142 36.277 149.193 36.9888 149.541 37.0525C149.575 37.0597 149.606 37.0613 149.633 37.0613C149.734 37.0613 149.794 37.0186 149.859 36.943C149.859 36.943 149.684 36.6691 149.553 36.4848C149.379 36.2432 149.244 35.9509 148.919 35.9509C148.912 35.9509 148.902 35.9509 148.894 35.9517C148.787 35.9573 148.722 36.0089 148.722 36.0089C148.59 35.9267 148.468 35.8985 148.357 35.8985C148.153 35.8985 147.996 35.9911 147.917 35.9911H147.914L147.189 35.9203C147.075 35.9098 146.987 35.7963 146.954 35.752C146.946 35.7399 146.942 35.7326 146.942 35.7326C146.942 35.7133 146.942 35.6932 146.94 35.6755C146.916 35.0869 146.457 34.8348 146.295 34.8308C146.295 34.8308 146.314 34.7188 146.269 34.6762L146.11 34.8686L145.586 34.6069L145.959 35.041L145.642 35.3944C145.602 35.4347 145.607 35.4895 145.623 35.512L145.761 35.632L145.934 35.5273C145.943 35.5209 145.958 35.5192 145.977 35.5192C146.025 35.5192 146.097 35.5313 146.163 35.5313C146.233 35.5313 146.294 35.516 146.302 35.45C146.279 35.6682 146.076 36.0475 146.211 36.3454L146.309 36.5701L145.669 36.4783L145.369 36.9816C145.277 37.1491 145.262 37.3303 145.351 37.4285L145.463 37.5679C145.463 37.5679 145.62 37.402 145.656 37.2932L145.605 37.2376C145.562 37.1909 145.564 37.1491 145.59 37.0984L145.778 36.7883L146.535 36.9655L146.574 36.8979C146.625 36.8133 146.699 36.7875 146.78 36.7875C146.813 36.7875 146.847 36.7915 146.882 36.7972C147.023 36.8246 147.254 36.8616 147.485 36.8616C147.738 36.8616 147.99 36.8165 148.123 36.6676C148.398 37.071 148.953 37.1354 148.908 37.3399L148.763 38.0308C148.86 38.0268 148.953 38.0203 149.041 38.0083L149.179 37.2892C149.195 37.2111 149.209 37.1056 149.209 37.1056C149.156 37.0516 149.026 36.9373 148.953 36.7988C148.855 36.612 148.908 36.5146 148.817 36.2713C148.821 36.273 148.848 36.2166 148.912 36.2166ZM146.084 35.2068C146.046 35.206 146.02 35.1746 146.022 35.1376C146.025 35.1022 146.055 35.074 146.091 35.0772C146.128 35.0788 146.155 35.111 146.153 35.1464C146.15 35.1818 146.12 35.2093 146.084 35.2068Z" fill="white"/>
<path d="M145.053 36.8706C145.053 36.8706 145.304 36.7683 145.326 36.6951L145.293 36.6121C145.27 36.5582 145.273 36.4994 145.319 36.4671L145.589 36.2811L146.041 36.3673C146.041 36.3673 145.959 36.2658 145.967 36.1298L145.536 36.0388L145.13 36.2852C144.955 36.4149 144.942 36.6266 145 36.7522L145.053 36.8706Z" fill="white"/>
<path d="M148.25 38.0419C148.331 38.0387 148.421 38.0371 148.519 38.0371C148.519 38.0371 148.751 37.3615 148.764 37.3397C148.634 37.2826 148.363 37.1401 148.259 37.0748C148.328 37.1771 148.495 37.2947 148.462 37.3849L148.25 38.0419Z" fill="white"/>
<path d="M150.463 34.0349H144.035V36.4378C144.035 37.4202 144.75 38.0353 145.806 38.0353C146.688 38.0353 146.921 38.0692 147.249 38.3929C147.475 38.1691 147.663 38.0854 148.047 38.0539L148.056 38.0169L148.258 37.3944C148.247 37.3807 147.915 37.0063 147.915 37.0063C147.784 37.0498 147.674 37.057 147.489 37.057C147.298 37.057 147.084 37.0353 146.85 36.9918C146.827 36.9862 146.805 36.9845 146.784 36.9845C146.755 36.9845 146.753 36.987 146.745 37.0006L146.705 37.0666L146.631 37.1875L146.493 37.156L145.876 37.012L145.791 37.1504L145.805 37.1649L145.88 37.247L145.847 37.3541C145.801 37.4943 145.654 37.6577 145.609 37.7028L145.455 37.8671L145.315 37.6907L145.21 37.5595C145.099 37.4363 145.073 37.247 145.135 37.0489C145.134 37.0506 145.131 37.0514 145.129 37.0514L144.954 37.123L144.876 36.954L144.821 36.8339C144.726 36.623 144.761 36.3145 145.016 36.1285L145.513 35.8499L145.986 35.9425C145.997 35.8975 146.013 35.7364 146.028 35.6953C146.019 35.6946 146.01 35.6921 146.001 35.6921L145.728 35.7928L145.466 35.6124C145.466 35.6124 145.363 35.5142 145.456 35.4159L145.71 35.0334L145.066 34.2298L146.057 34.634L146.122 34.5527L146.256 34.3941L146.407 34.5374C146.451 34.5784 146.475 34.6291 146.487 34.6799C146.76 34.7854 147.249 35.0971 147.291 35.6035L147.138 35.6647V35.6688C147.174 35.7098 147.202 35.7268 147.211 35.7283L147.918 35.7976C147.936 35.7943 147.958 35.7863 147.984 35.7791C148.071 35.7493 148.203 35.7066 148.359 35.7066C148.487 35.7066 148.61 35.7356 148.728 35.7904C148.772 35.7742 148.826 35.7622 148.887 35.7581L148.921 35.7574C149.3 35.7574 149.487 36.0384 149.638 36.2623C149.664 36.3009 149.688 36.3379 149.715 36.3742C149.847 36.5593 150.019 36.8308 150.027 36.842L150.104 36.9628L150.009 37.0731C149.935 37.1576 149.825 37.2568 149.635 37.2568C149.596 37.2568 149.553 37.2526 149.507 37.2439C149.466 37.2365 149.43 37.2245 149.394 37.21C149.388 37.247 149.382 37.2913 149.374 37.3292L149.25 37.9717C149.991 37.7905 150.462 37.2342 150.462 36.4386L150.463 34.0349Z" fill="#FFDD2D"/>
<path d="M144.034 33.8414H149.033C148.784 33.5853 148.787 33.2609 148.85 33.0498C148.778 33.0153 148.718 32.9734 148.664 32.9283C148.469 33.0716 147.872 33.5032 147.717 33.6111L147.684 33.6336L145.722 33.281H145.682C145.635 33.281 145.566 33.2794 145.491 33.2705C145.47 33.3583 145.394 33.4187 145.307 33.4187C145.297 33.4187 145.286 33.4179 145.274 33.4155C145.223 33.4065 145.179 33.3808 145.149 33.3381C145.118 33.2963 145.106 33.2463 145.115 33.1948L145.122 33.153C144.92 33.0112 144.734 32.6947 144.816 32.3613L144.824 32.3259L144.853 32.3058C144.857 32.3026 144.89 32.28 144.941 32.251L144.798 32.2293C144.745 32.2197 144.709 32.1705 144.717 32.1182C144.726 32.065 144.776 32.0272 144.829 32.0376L145.169 32.0908L145.199 30.9023L145.705 30.3708L146.02 31.0303L145.687 32.1738L145.987 32.2205C146.039 32.2285 146.076 32.2776 146.068 32.3316C146.06 32.3791 146.019 32.4121 145.972 32.4121C145.967 32.4121 145.961 32.4121 145.956 32.4113L145.712 32.3718C145.715 32.3791 145.721 32.3831 145.724 32.3912C145.75 32.4443 145.807 32.483 145.841 32.499L147.337 32.5224C147.401 32.4612 147.557 32.3082 147.719 32.1464C147.351 32.0079 147.217 31.6922 147.194 31.4829C146.989 31.3959 146.847 31.2654 146.768 31.0955C146.672 30.8853 146.707 30.6752 146.732 30.5729C146.532 30.5004 146.323 30.3684 146.108 30.1575H143.856C143.952 30.4151 144.034 30.6945 144.034 30.9723V33.8414Z" fill="#FFDD2D"/>
<path d="M146.091 35.0785C146.055 35.0753 146.025 35.1033 146.022 35.1383C146.02 35.175 146.048 35.2061 146.084 35.2069C146.12 35.2101 146.151 35.1829 146.154 35.1471C146.154 35.112 146.129 35.0793 146.091 35.0785Z" fill="black"/>
<path d="M150.452 39.4344L150.082 39.2935L150.184 38.9134L150.297 38.4987C150.297 38.4987 149.64 38.8522 148.716 39.1179C148.453 39.1929 148.254 39.2266 148.254 39.2266V39.5085C148.254 39.5085 147.76 39.5938 147.26 39.5938H147.255H147.247H147.237H147.232C146.732 39.5938 146.238 39.5085 146.238 39.5085V39.2266C146.238 39.2266 146.038 39.1929 145.776 39.1179C144.852 38.8522 144.196 38.4987 144.196 38.4987L144.307 38.9134L144.412 39.2935L144.041 39.4344L143.629 39.5874C144.102 39.8136 144.756 40.1439 145.354 40.3065L145.213 40.6898C145.213 40.6898 145.973 41.0336 147.237 41.0368V41.0376H147.242H147.247H147.252H147.255V41.0368C148.522 41.0336 149.28 40.6898 149.28 40.6898L149.139 40.3065C149.737 40.1439 150.393 39.8136 150.863 39.5874L150.452 39.4344ZM144.069 39.6132L144.678 39.4119L144.498 38.8281C144.766 38.9795 145.368 39.2065 145.716 39.312L145.422 40.1148C144.885 39.9675 144.436 39.7959 144.069 39.6132ZM147.247 40.8355C146.54 40.8355 145.732 40.6737 145.494 40.59L145.856 39.618C146.156 39.705 146.78 39.7976 147.233 39.7944H147.247H147.259H147.261C147.714 39.7976 148.336 39.705 148.638 39.618L148.998 40.59C148.761 40.6745 147.954 40.8355 147.247 40.8355ZM149.07 40.1148L148.777 39.312C149.127 39.2065 149.727 38.9795 149.996 38.8281L149.817 39.4119L150.426 39.6132C150.057 39.7959 149.611 39.9675 149.07 40.1148Z" fill="black"/>
<path d="M147.252 24.2639C148.006 24.2639 148.609 24.5119 148.942 24.7768C148.942 24.7768 149.04 24.185 149.379 23.6624L148.772 23.7308L148.454 23.0601L147.844 23.3725L147.252 22.7911L146.662 23.3725L146.052 23.0601L145.734 23.7308L145.128 23.6624C145.465 24.185 145.564 24.7768 145.564 24.7768C145.898 24.5119 146.499 24.2639 147.252 24.2639ZM145.707 23.966L145.875 23.9837L145.948 23.8315L146.161 23.3806L146.555 23.5827L146.707 23.66L146.829 23.5408L147.253 23.1221L147.678 23.5408L147.8 23.66L147.952 23.5827L148.344 23.3806L148.559 23.8315L148.63 23.9837L148.798 23.966L148.959 23.9467C148.885 24.1117 148.831 24.268 148.792 24.3976C148.368 24.1624 147.815 24.0288 147.252 24.0288C146.691 24.0288 146.139 24.1624 145.713 24.3976C145.673 24.268 145.62 24.1109 145.545 23.9467L145.707 23.966Z" fill="black"/>
<path d="M156.087 32.1168C157.062 32.1168 157.388 31.1312 157.401 31.0893L157.51 30.7422L157.145 30.7536H157.143C157.014 30.7536 155.939 30.7254 155.177 29.7623L155.104 29.6729C154.606 29.0432 154.133 28.4449 153.289 28.1719C153.314 28.1502 153.348 28.1228 153.396 28.0922C153.844 27.7991 154.105 27.4431 154.171 27.03C154.266 26.4084 153.868 25.9131 153.85 25.893L153.578 25.5597L153.409 25.9551C153.398 25.98 153.113 26.613 152.513 26.613H152.468C152.427 26.6105 152.388 26.6089 152.349 26.6057C152.37 26.3231 152.318 25.8858 151.919 25.476C151.441 24.9823 150.852 24.9082 150.545 24.9082C150.38 24.9082 150.271 24.9284 150.259 24.93L149.849 25.0105L150.102 25.3415C150.301 25.5967 150.48 26.0678 150.267 26.3142C150.199 26.3923 150.059 26.4559 149.924 26.5195C149.648 26.646 149.271 26.8215 149.271 27.2692C149.271 27.5591 149.498 27.8619 149.908 28.1196C151.121 28.8781 151.87 29.6697 152.193 30.5433C152.693 31.8873 152.041 32.6539 151.407 33.0573L151.123 33.2393L151.372 33.4664C151.405 33.4954 151.709 33.762 152.159 33.8006C152.244 33.8062 152.327 33.8111 152.402 33.8111C152.691 33.8111 152.936 33.7659 153.136 33.7056C153.081 33.8014 153.014 33.8988 152.928 33.9971C152.566 34.4142 152.12 34.6042 151.48 34.6139L151.241 34.6179L151.223 34.8555C151.22 34.9029 151.202 35.3434 151.622 35.7179C151.686 35.7759 151.764 35.8233 151.845 35.8628C151.561 36.1173 151.271 36.5601 151.215 37.3195C151.169 37.9532 151.016 38.1876 151.014 38.19L150.751 38.5894L151.226 38.5958C152.012 38.5958 152.615 38.38 153.032 37.9532C153.278 37.7004 153.419 37.4154 153.503 37.1625C153.64 37.2784 153.817 37.3799 154.046 37.4339C154.134 37.454 154.23 37.4653 154.333 37.4653C154.555 37.4653 154.74 37.4185 154.761 37.4137L155.066 37.3332L154.931 37.0514C154.921 37.0288 154.667 36.4635 154.94 35.6567C155.058 35.308 155.118 34.9956 155.147 34.7523C155.339 34.8515 155.594 34.9335 155.926 34.9344C156.678 34.9344 157.01 34.3764 157.025 34.353L157.173 34.0969L156.899 33.9842C156.002 33.6145 155.804 32.6217 155.764 32.0838C155.845 32.0991 155.937 32.1135 156.041 32.1168H156.087ZM156.798 34.2218C156.798 34.2218 156.535 34.6751 155.933 34.6751H155.926C155.203 34.671 154.911 34.233 154.911 34.233C154.911 34.233 154.953 34.8031 154.693 35.5721C154.379 36.4989 154.695 37.1617 154.695 37.1617C154.695 37.1617 154.526 37.2068 154.332 37.2068C154.257 37.2068 154.18 37.1995 154.106 37.1802C153.503 37.0377 153.352 36.4917 153.352 36.4917C153.352 36.4917 153.408 38.3366 151.244 38.3366H151.226C151.226 38.3366 151.417 38.0789 151.474 37.3372C151.577 35.9683 152.51 35.7807 152.51 35.7807C152.51 35.7807 152.012 35.7186 151.796 35.5262C151.46 35.2227 151.483 34.8716 151.483 34.8716C152.244 34.8611 152.743 34.6034 153.123 34.1661C153.535 33.6927 153.602 33.183 153.602 33.183C153.602 33.183 153.194 33.5517 152.402 33.5517C152.332 33.5517 152.258 33.5485 152.181 33.5413C151.807 33.5115 151.547 33.2748 151.547 33.2748C152.372 32.7497 152.951 31.8334 152.438 30.4532C152.027 29.3475 151.04 28.5213 150.046 27.8989C149.715 27.6936 149.531 27.4657 149.531 27.2692C149.531 26.807 150.193 26.7925 150.464 26.4816C150.777 26.121 150.581 25.5355 150.309 25.1836C150.309 25.1836 150.401 25.1651 150.545 25.1651C150.831 25.1651 151.326 25.2368 151.733 25.6555C152.273 26.2111 152.049 26.8158 152.049 26.8158L152.194 26.844C152.281 26.8626 152.367 26.8658 152.456 26.8698C152.475 26.8698 152.495 26.8707 152.514 26.8707C153.299 26.8707 153.65 26.0549 153.65 26.0549C153.65 26.0549 154.485 27.0751 153.257 27.8739C153.045 28.0108 152.952 28.1373 152.976 28.2726L152.996 28.3611L153.083 28.3764C153.974 28.6164 154.424 29.2268 154.975 29.9209C155.81 30.9766 156.992 31.0104 157.138 31.0104H157.154C157.154 31.0104 156.884 31.8567 156.089 31.8567C156.076 31.8567 156.065 31.8567 156.05 31.8559C155.685 31.843 155.498 31.7037 155.498 31.7037C155.498 31.7037 155.354 33.6258 156.798 34.2218Z" fill="black"/>
<path d="M154.38 28.2792C154.744 28.4717 154.956 28.7294 155.142 28.958C155.324 29.1811 155.497 29.3961 155.768 29.4855C155.864 29.5185 155.966 29.5338 156.07 29.5338C156.477 29.5338 156.885 29.2866 157.04 28.9444L157.195 28.6013L156.819 28.5788C156.801 28.5779 156.316 28.5345 155.777 27.9861C155.554 27.7615 155.286 27.6431 154.997 27.6431C154.644 27.6431 154.382 27.8186 154.353 27.8363L154.006 28.0787L154.38 28.2792ZM154.998 27.9023C155.179 27.9023 155.391 27.9636 155.591 28.1689C156.219 28.8026 156.803 28.838 156.803 28.838C156.697 29.0716 156.389 29.2769 156.071 29.2769C155.997 29.2769 155.923 29.2656 155.85 29.2407C155.418 29.0957 155.263 28.4516 154.503 28.0505C154.503 28.0505 154.716 27.9023 154.998 27.9023Z" fill="black"/>
<path d="M154.545 31.701V31.7138C154.327 29.96 153.044 28.6934 151.619 27.9227C151.487 27.8526 151.365 27.7931 151.247 27.7359C151.681 27.8028 152.38 27.8108 152.92 27.3453C152.92 27.3453 152.094 27.9493 150.402 27.401C150.871 27.7029 151.781 28.1289 152.611 28.8189C154.688 30.6324 153.202 32.4015 153.202 32.4015C153.948 31.6277 153.979 30.7983 153.759 30.1211C154.152 30.7709 154.403 31.56 154.364 32.5328C154.307 33.9267 153.536 35.1321 152.726 36.1008C152.336 36.5711 152.248 37.1484 152.248 37.1484C152.248 37.1484 152.405 36.6387 152.857 36.1145C153.726 35.1031 154.469 34.0523 154.567 32.5384C154.656 32.813 155.027 33.5772 155.615 33.8647C155.616 33.8655 154.877 33.4233 154.545 31.701Z" fill="black"/>
<path d="M143.48 38.1896C143.479 38.1872 143.328 37.9528 143.279 37.3191C143.222 36.5598 142.934 36.1169 142.649 35.8625C142.731 35.8238 142.808 35.7763 142.871 35.7175C143.291 35.343 143.273 34.9026 143.27 34.8551L143.254 34.6176L143.015 34.6135C142.375 34.6031 141.929 34.413 141.566 33.9967C141.482 33.8985 141.414 33.801 141.359 33.7052C141.558 33.7656 141.802 33.8107 142.091 33.8107C142.169 33.8107 142.25 33.8058 142.334 33.8002C142.784 33.7615 143.089 33.4958 143.123 33.466L143.372 33.2389L143.087 33.057C142.451 32.6527 141.801 31.8861 142.301 30.543C142.624 29.6693 143.372 28.8777 144.587 28.1192C144.997 27.8616 145.222 27.5587 145.222 27.2688C145.222 26.8212 144.845 26.6448 144.569 26.5191C144.435 26.4555 144.295 26.3919 144.227 26.3139C144.013 26.0682 144.194 25.5963 144.391 25.3411L144.645 25.0101L144.234 24.9296C144.221 24.928 144.114 24.9078 143.948 24.9078C143.641 24.9078 143.054 24.9819 142.574 25.4756C142.175 25.8863 142.122 26.3235 142.142 26.6054C142.103 26.6085 142.064 26.6101 142.024 26.6126H141.98C141.379 26.6126 141.095 25.9797 141.083 25.9547L140.914 25.5593L140.64 25.8927C140.624 25.9128 140.225 26.4088 140.321 27.0297C140.387 27.4428 140.648 27.7987 141.095 28.0918C141.144 28.1223 141.178 28.1498 141.203 28.1715C140.359 28.4445 139.887 29.0436 139.389 29.6733L139.316 29.7627C138.555 30.7257 137.477 30.7539 137.348 30.7539L136.982 30.7427L137.093 31.0897C137.106 31.1316 137.431 32.1172 138.407 32.1172L138.454 32.1156C138.557 32.1124 138.649 32.0987 138.731 32.0826C138.691 32.6197 138.493 33.6126 137.596 33.983L137.321 34.0957L137.47 34.3518C137.485 34.3752 137.817 34.9332 138.57 34.9332C138.899 34.9324 139.155 34.8502 139.347 34.7512C139.376 34.9944 139.436 35.3068 139.554 35.6555C139.827 36.4623 139.573 37.0276 139.563 37.0502L139.429 37.332L139.733 37.4125C139.754 37.4174 139.94 37.464 140.162 37.464C140.266 37.464 140.361 37.4528 140.447 37.4327C140.678 37.3787 140.856 37.2773 140.992 37.1613C141.074 37.4142 141.216 37.6992 141.461 37.9521C141.88 38.3788 142.481 38.5947 143.267 38.5947L143.744 38.5882L143.48 38.1896ZM143.249 38.337C141.085 38.337 141.14 36.4922 141.14 36.4922C141.14 36.4922 140.989 37.0381 140.386 37.1807C140.313 37.1999 140.237 37.2072 140.161 37.2072C139.967 37.2072 139.799 37.1621 139.799 37.1621C139.799 37.1621 140.114 36.4994 139.799 35.5725C139.541 34.8036 139.583 34.2334 139.583 34.2334C139.583 34.2334 139.292 34.6715 138.568 34.6755H138.56C137.959 34.6755 137.696 34.2222 137.696 34.2222C139.139 33.6271 138.997 31.7058 138.997 31.7058C138.997 31.7058 138.809 31.8443 138.443 31.8579C138.43 31.8588 138.418 31.8588 138.405 31.8588C137.609 31.8588 137.34 31.0125 137.34 31.0125H137.357C137.503 31.0125 138.684 30.9786 139.52 29.9229C140.069 29.2288 140.521 28.6192 141.41 28.3785L141.499 28.3632L141.518 28.2746C141.542 28.1394 141.45 28.0129 141.239 27.876C140.01 27.0764 140.845 26.0569 140.845 26.0569C140.845 26.0569 141.194 26.8719 141.981 26.8719C142.001 26.8719 142.019 26.871 142.039 26.871C142.127 26.8662 142.214 26.863 142.301 26.8445L142.445 26.8163C142.445 26.8163 142.221 26.2116 142.763 25.656C143.169 25.2364 143.664 25.1655 143.949 25.1655C144.095 25.1655 144.185 25.1841 144.185 25.1841C143.914 25.5367 143.717 26.1213 144.03 26.4822C144.301 26.7921 144.962 26.8074 144.962 27.2697C144.962 27.4653 144.778 27.694 144.447 27.8994C143.453 28.5219 142.466 29.348 142.055 30.4536C141.544 31.8338 142.121 32.7494 142.947 33.2752C142.947 33.2752 142.688 33.5119 142.313 33.5417C142.236 33.549 142.163 33.5522 142.091 33.5522C141.3 33.5522 140.891 33.1834 140.891 33.1834C140.891 33.1834 140.96 33.6931 141.368 34.1666C141.751 34.6038 142.25 34.8615 143.011 34.872C143.011 34.872 143.036 35.223 142.698 35.5266C142.482 35.7183 141.984 35.7811 141.984 35.7811C141.984 35.7811 142.918 35.9687 143.02 37.3377C143.076 38.0793 143.264 38.337 143.264 38.337H143.249Z" fill="black"/>
<path d="M138.425 29.5337C138.529 29.5337 138.631 29.5184 138.728 29.4854C139 29.396 139.173 29.181 139.355 28.9579C139.542 28.7293 139.752 28.4716 140.115 28.2791L140.49 28.0794L140.142 27.8371C140.113 27.8186 139.852 27.6438 139.5 27.6438C139.209 27.6438 138.94 27.7614 138.719 27.9868C138.18 28.5344 137.696 28.5787 137.678 28.5795L137.301 28.6012L137.456 28.945C137.611 29.2857 138.019 29.5337 138.425 29.5337ZM138.905 28.1688C139.106 27.9635 139.317 27.9023 139.5 27.9023C139.779 27.9023 139.992 28.0505 139.992 28.0505C139.233 28.4523 139.078 29.0956 138.645 29.2406C138.573 29.2656 138.498 29.2769 138.425 29.2769C138.106 29.2769 137.799 29.0723 137.693 28.8379C137.693 28.8379 138.276 28.8017 138.905 28.1688Z" fill="black"/>
<path d="M140.135 32.5339C140.094 31.5611 140.346 30.772 140.739 30.1221C140.52 30.7994 140.55 31.6287 141.297 32.4026C141.297 32.4026 139.811 30.6335 141.888 28.82C142.719 28.13 143.629 27.704 144.096 27.402C142.405 27.9504 141.579 27.3464 141.579 27.3464C142.119 27.8119 142.818 27.8038 143.253 27.7361C143.136 27.7934 143.013 27.853 142.882 27.923C141.454 28.6937 140.173 29.9603 139.953 31.7141V31.7004C139.622 33.4229 138.885 33.8649 138.885 33.8649C139.471 33.5774 139.841 32.8141 139.931 32.5387C140.028 34.0526 140.772 35.1034 141.641 36.1148C142.092 36.639 142.251 37.1487 142.251 37.1487C142.251 37.1487 142.163 36.5714 141.771 36.1011C140.962 35.134 140.191 33.9278 140.135 32.5339Z" fill="black"/>
<path d="M146.762 28.9841V29.332C146.883 29.1863 147.116 29.216 147.116 29.216V29.7177C147.116 29.7177 147.108 29.9641 147.02 30.0713H147.272H147.524C147.438 29.9649 147.429 29.7177 147.429 29.7177V29.216C147.429 29.216 147.662 29.1863 147.782 29.332V28.9841H147.272H146.762Z" fill="black"/>
<path d="M146.543 26.9204C146.704 27.0474 146.797 27.0683 146.8 27.0707L146.864 27.0996V26.7725L146.271 26.525C146.271 26.525 146.277 26.7147 146.543 26.9204Z" fill="black"/>
<path d="M147.954 26.9204C148.221 26.7147 148.226 26.525 148.226 26.525L147.634 26.7725V27.0996L147.696 27.0707C147.7 27.0683 147.792 27.0474 147.954 26.9204Z" fill="black"/>
<path d="M149.021 25.5857C149.021 25.0889 148.179 24.642 147.249 24.642H147.246H147.243C146.314 24.642 145.473 25.0889 145.473 25.5857L145.491 25.7081L145.862 27.825L145.489 28.0401L144.525 28.5997H144.528C144.528 28.5997 144.311 28.71 144.21 28.7784C143.844 29.0322 143.766 29.4018 143.979 29.5548C144.032 29.2536 144.271 28.9379 144.72 28.9379C145.044 28.9379 145.29 29.1038 145.489 29.3526C145.54 29.4154 145.589 29.4822 145.635 29.5548C145.69 29.6457 145.746 29.7255 145.802 29.8027H143.319C143.501 30.1675 143.674 30.5541 143.674 30.9736V36.4363C143.674 37.7586 144.698 38.3899 145.805 38.3899C146.661 38.3899 146.775 38.3513 147.248 38.8183C147.717 38.3505 147.833 38.3899 148.689 38.3899C149.797 38.3899 150.819 37.7586 150.819 36.4363V30.9736C150.819 30.5541 150.993 30.1675 151.176 29.8027H148.691C148.746 29.7263 148.802 29.6457 148.858 29.5548C148.904 29.4822 148.952 29.4154 149.002 29.3526C149.203 29.103 149.448 28.9379 149.772 28.9379C150.221 28.9379 150.46 29.2527 150.513 29.5548C150.726 29.4018 150.65 29.0322 150.28 28.7784C150.181 28.71 149.964 28.5997 149.964 28.5997H149.967L149.003 28.0401L148.632 27.825L149.003 25.7081L149.021 25.5857ZM145.838 25.8321L147.142 26.2717V28.3082L146.182 27.8049L145.838 25.8321ZM146.108 30.1578C146.322 30.3696 146.532 30.5009 146.731 30.5734C146.705 30.6756 146.671 30.8866 146.767 31.0968C146.846 31.2659 146.988 31.3963 147.194 31.4833C147.216 31.6927 147.349 32.0075 147.717 32.1468C147.557 32.3087 147.399 32.4609 147.336 32.5229L145.84 32.4996C145.806 32.4826 145.749 32.4447 145.722 32.3908C145.719 32.3835 145.715 32.3796 145.712 32.3715L145.956 32.4109C145.962 32.4117 145.967 32.4117 145.971 32.4117C146.019 32.4117 146.06 32.3796 146.068 32.3313C146.076 32.2773 146.04 32.2281 145.987 32.2201L145.687 32.1734L146.02 31.0308L145.705 30.3713L145.2 30.9027L145.168 32.0913L144.829 32.0382C144.776 32.0277 144.726 32.0663 144.717 32.1186C144.709 32.171 144.744 32.2201 144.798 32.2298L144.941 32.2515C144.89 32.2805 144.856 32.3031 144.852 32.3063L144.823 32.3264L144.815 32.3619C144.732 32.6952 144.92 33.0117 145.122 33.1533L145.114 33.1953C145.106 33.2468 145.117 33.2967 145.148 33.3386C145.177 33.3813 145.223 33.4071 145.273 33.4159C145.284 33.4175 145.295 33.4183 145.305 33.4183C145.392 33.4183 145.468 33.3579 145.49 33.2702C145.566 33.279 145.635 33.2806 145.681 33.2806H145.721L147.683 33.6325L147.716 33.6108C147.873 33.502 148.468 33.0705 148.663 32.9279C148.717 32.9738 148.777 33.0156 148.85 33.0504C148.787 33.2613 148.782 33.5858 149.033 33.8418H144.033V30.9744C144.033 30.6966 143.952 30.4172 143.855 30.1595H146.108V30.1578ZM148.532 32.7813C148.334 32.9263 147.823 33.2967 147.639 33.4256L145.856 33.1075C145.86 33.0914 145.863 33.0761 145.868 33.06C145.891 32.9682 145.915 32.8425 145.917 32.6952L147.414 32.7194L147.443 32.6904C147.466 32.6678 147.941 32.2121 148.183 31.9495C148.24 32.0212 148.313 32.0897 148.407 32.1501C148.374 32.324 148.388 32.572 148.532 32.7813ZM145.548 32.4746C145.59 32.5623 145.666 32.6211 145.719 32.6541C145.717 32.7363 145.709 32.8643 145.687 32.977C145.682 33.002 145.676 33.0254 145.668 33.0487C145.665 33.0632 145.66 33.0753 145.657 33.0849C145.578 33.0849 145.424 33.0753 145.297 33.0294C145.157 32.9778 144.948 32.7225 144.996 32.4415C145.057 32.4045 145.197 32.3264 145.329 32.3264C145.43 32.3256 145.499 32.3731 145.548 32.4746ZM145.362 32.121L145.392 30.98L145.65 30.7086L145.812 31.0452L145.493 32.1404L145.362 32.121ZM148.516 38.0364C148.419 38.0364 148.329 38.038 148.248 38.0412L148.46 37.385C148.494 37.2939 148.326 37.1772 148.257 37.0749C148.361 37.1402 148.632 37.2827 148.762 37.3398C148.749 37.3608 148.516 38.0364 148.516 38.0364ZM149.182 37.2907L149.043 38.009C148.955 38.0211 148.861 38.0276 148.764 38.0316L148.911 37.3407C148.954 37.1353 148.399 37.0717 148.125 36.6683C147.992 36.8181 147.74 36.8623 147.487 36.8623C147.256 36.8623 147.025 36.8253 146.885 36.7979C146.849 36.7923 146.815 36.7883 146.782 36.7883C146.701 36.7883 146.627 36.8133 146.576 36.8986L146.535 36.9662L145.779 36.789L145.591 37.0983C145.565 37.1482 145.563 37.1909 145.606 37.2376L145.657 37.2931C145.623 37.4027 145.465 37.5678 145.465 37.5678L145.353 37.4285C145.263 37.3293 145.278 37.149 145.371 36.9816L145.671 36.4782L146.311 36.57L146.211 36.3446C146.078 36.0466 146.281 35.6673 146.303 35.4492C146.295 35.5152 146.235 35.5297 146.163 35.5297C146.099 35.5297 146.027 35.5176 145.979 35.5176C145.96 35.5176 145.944 35.5192 145.935 35.5256L145.761 35.6303L145.625 35.5104C145.608 35.487 145.603 35.433 145.644 35.3928L145.96 35.0401L145.586 34.6061L146.11 34.8678L146.27 34.6753C146.313 34.718 146.295 34.8299 146.295 34.8299C146.459 34.8339 146.917 35.086 146.941 35.6738C146.943 35.6915 146.943 35.7117 146.943 35.7309C146.943 35.7309 146.947 35.7382 146.955 35.7503C146.988 35.7946 147.077 35.9082 147.19 35.9186L147.915 35.9895H147.918C147.997 35.9895 148.155 35.8968 148.358 35.8968C148.468 35.8968 148.591 35.925 148.722 36.0072C148.722 36.0072 148.788 35.9556 148.895 35.9499C148.903 35.9492 148.912 35.9492 148.92 35.9492C149.245 35.9492 149.38 36.2407 149.554 36.483C149.685 36.6675 149.86 36.9413 149.86 36.9413C149.796 37.0178 149.736 37.0596 149.635 37.0596C149.607 37.0596 149.576 37.0572 149.542 37.0508C149.193 36.9871 149.143 36.2753 148.944 36.219C148.934 36.2157 148.923 36.215 148.913 36.215C148.849 36.215 148.821 36.2713 148.821 36.2713C148.911 36.5137 148.859 36.6119 148.956 36.7988C149.029 36.9372 149.159 37.0516 149.212 37.1055C149.212 37.1071 149.197 37.2118 149.182 37.2907ZM145.292 36.6111L145.325 36.694C145.303 36.7665 145.052 36.8696 145.052 36.8696L144.997 36.7521C144.94 36.6264 144.952 36.4146 145.127 36.285L145.534 36.0386L145.965 36.1296C145.957 36.2657 146.039 36.3672 146.039 36.3672L145.587 36.281L145.316 36.467C145.271 36.4983 145.267 36.5572 145.292 36.6111ZM149.25 37.9695L149.374 37.3269C149.381 37.2891 149.388 37.2448 149.394 37.2078C149.429 37.2223 149.466 37.2344 149.507 37.2416C149.553 37.2504 149.596 37.2545 149.635 37.2545C149.825 37.2545 149.935 37.1555 150.009 37.0709L150.104 36.9606L150.027 36.8398C150.019 36.8277 149.847 36.5572 149.715 36.372C149.688 36.3357 149.664 36.2995 149.638 36.26C149.487 36.0362 149.298 35.7552 148.92 35.7552L148.887 35.7559C148.824 35.76 148.77 35.772 148.728 35.7882C148.608 35.7326 148.486 35.7044 148.359 35.7044C148.203 35.7044 148.071 35.7471 147.983 35.7769C147.957 35.7842 147.935 35.7921 147.917 35.7954L147.21 35.7261C147.201 35.7245 147.171 35.7076 147.137 35.6658V35.6625L147.29 35.6013C147.247 35.0948 146.757 34.7832 146.484 34.6777C146.472 34.627 146.448 34.5762 146.405 34.5352L146.253 34.3919L146.119 34.5513L146.053 34.6326L145.063 34.2284L145.707 35.032L145.453 35.4145C145.359 35.5128 145.463 35.611 145.463 35.611L145.725 35.7906L145.998 35.6899C146.007 35.6899 146.016 35.6923 146.024 35.6931C146.011 35.7342 145.994 35.8953 145.983 35.9403L145.51 35.8477L145.014 36.1264C144.759 36.3123 144.723 36.6207 144.819 36.8318L144.873 36.9517L144.952 37.1208L145.125 37.0491C145.128 37.0483 145.131 37.0476 145.132 37.0459C145.07 37.2441 145.095 37.4325 145.206 37.5564L145.312 37.6885L145.452 37.8649L145.606 37.7006C145.651 37.6555 145.798 37.492 145.843 37.3519L145.877 37.2448L145.801 37.1627L145.789 37.1482L145.873 37.0097L146.49 37.1538L146.628 37.1853L146.703 37.0644L146.743 36.9984C146.75 36.9848 146.753 36.9823 146.781 36.9823C146.803 36.9823 146.825 36.9848 146.848 36.9896C147.081 37.0331 147.296 37.0548 147.486 37.0548C147.671 37.0548 147.781 37.0476 147.913 37.0041C147.913 37.0041 148.245 37.3777 148.256 37.3922L148.053 38.0139L148.044 38.0517C147.66 38.0823 147.473 38.166 147.247 38.3907C146.919 38.067 146.686 38.0332 145.804 38.0332C144.748 38.0332 144.033 37.418 144.033 36.4356V34.0335H150.46L150.462 36.4356C150.462 37.2327 149.991 37.7884 149.25 37.9695ZM150.64 30.1578C150.542 30.4155 150.46 30.695 150.46 30.9728L150.461 32.7652C150.084 32.7024 150.039 32.299 150.038 32.2813L150.03 32.1992L149.949 32.1919C149.786 32.1766 149.677 32.1074 149.586 32.0188C149.401 31.8351 149.4 31.5372 149.401 31.5348C149.398 31.5501 149.197 31.8296 149.431 32.1348C149.529 32.2636 149.67 32.3425 149.855 32.3739C149.898 32.5977 150.066 32.9134 150.461 32.9617V33.8395H149.349C148.836 33.556 149.053 33.0567 149.064 33.0358L149.107 32.9408L149.01 32.9038C148.455 32.6992 148.607 32.1484 148.615 32.1251L148.638 32.0446L148.562 32.0091C148.104 31.7982 148.166 31.2289 148.172 31.2054C148.031 31.3191 147.98 31.551 148.077 31.7781C148.024 31.8376 147.954 31.9101 147.876 31.989C147.402 31.869 147.387 31.435 147.387 31.4149L147.387 31.348L147.324 31.3239C147.138 31.2554 147.011 31.1532 146.949 31.0155C146.878 30.8632 146.904 30.7038 146.923 30.6273C146.977 30.6394 147.031 30.6483 147.084 30.6523C147.137 30.6579 147.192 30.6611 147.247 30.6611H147.25H147.255C147.309 30.6611 147.363 30.6579 147.417 30.6523C147.713 30.6233 148.044 30.4968 148.389 30.157H150.64V30.1578ZM148.908 28.3461L149.346 28.5997H149.353L149.463 28.6633C149.215 28.7318 149.025 28.855 148.867 29.0169C148.861 29.0217 148.855 29.0281 148.85 29.0337C148.813 29.0724 148.777 29.1143 148.743 29.1569C148.737 29.165 148.73 29.1738 148.722 29.1827C148.689 29.2262 148.657 29.2705 148.626 29.3172C148.621 29.3253 148.616 29.3333 148.61 29.3406C148.574 29.3945 148.539 29.4525 148.504 29.512C148.191 30.0475 147.692 30.3672 147.248 30.3681C146.805 30.3672 146.305 30.0475 145.992 29.512C145.959 29.4541 145.925 29.3977 145.888 29.3429C145.881 29.3325 145.875 29.322 145.868 29.3132C145.837 29.2689 145.806 29.2254 145.775 29.1843C145.767 29.173 145.759 29.1642 145.751 29.1546C145.717 29.1135 145.682 29.0724 145.647 29.0346C145.64 29.0289 145.635 29.0217 145.628 29.0152C145.468 28.8534 145.279 28.731 145.031 28.6633L145.143 28.5997H145.147L145.587 28.3461L146.038 28.0892L147.243 28.7414L147.246 28.739L147.249 28.7414L148.455 28.0892L148.908 28.3461ZM148.313 27.8057L147.351 28.309V26.2717L148.656 25.8321L148.313 27.8057ZM147.247 26.0479L145.818 25.4866C145.939 25.2008 146.5 24.9576 147.247 24.9568C147.995 24.9576 148.556 25.2008 148.677 25.4866L147.247 26.0479Z" fill="black"/>
<path d="M55.9521 29.9561H57.465L59.428 34.5783L61.2021 29.9561H62.5635L59.9002 36.8953C59.7532 37.4386 59.1447 38.6306 57.9789 38.6306C56.8131 38.6306 56.4042 38.2456 56.334 38.1058L56.7294 37.2585C57.2153 37.4429 58.2991 37.6283 58.5804 36.8953L58.7099 36.4495L55.9521 29.9561Z" fill="#BCBCBC"/>
<path fill-rule="evenodd" clip-rule="evenodd" d="M50.1644 30.384C50.4994 30.2011 51.4529 29.8356 52.5863 29.8356C54.0031 29.8356 55.3512 30.6435 55.3512 32.4005V36.4391H54.1173V35.5708C53.8356 35.9059 53.2506 36.5301 52.1982 36.5301C51.1457 36.5301 49.692 36.2177 49.5702 34.5426C49.446 32.8333 51.2013 32.4005 51.8638 32.4005C52.5264 32.4005 53.63 32.5269 54.1173 32.9469C54.1173 31.452 53.4567 30.6871 51.4155 31.1197C50.3659 31.3422 50.2482 30.681 50.1644 30.384ZM51.0427 33.7745C51.6995 33.0183 53.4265 33.3571 54.1173 33.5848V34.5426C53.4787 35.5831 52.4019 35.7476 51.6607 35.5708C50.7662 35.3574 50.5198 34.3767 51.0427 33.7745Z" fill="#BCBCBC"/>
<path fill-rule="evenodd" clip-rule="evenodd" d="M42.4697 27.6028V36.1968H43.8969V33.5285H46.1773C47.8137 33.5285 49.1402 32.202 49.1402 30.5657C49.1402 28.9293 47.8137 27.6028 46.1773 27.6028H42.4697ZM46.1486 28.9513H43.8614V32.3184H46.1486C47.0784 32.3184 47.8322 31.5647 47.8322 30.6349C47.8322 29.705 47.0784 28.9513 46.1486 28.9513Z" fill="#BCBCBC"/>
<path fill-rule="evenodd" clip-rule="evenodd" d="M6.42663 26.1648C6.80598 26.1626 7.93337 26.0623 8.41097 27.6541C8.73265 28.7265 9.24505 30.4829 9.94825 32.9234H10.2346C10.9887 30.3504 11.5067 28.5939 11.7887 27.6541C12.2711 26.0457 13.4775 26.1648 13.96 26.1648H17.6828V37.6025H13.8885V30.8621H13.634L11.5188 37.6025H8.66403L6.54883 30.8571H6.29439V37.6025H2.5V26.1648H6.42663Z" fill="#BCBCBC"/>
<path d="M22.8518 26.1648V37.6025H19.2578V26.1648H22.8518Z" fill="#BCBCBC"/>
<path d="M28.2661 34.1955V37.6026H24.5825V31.6001H36.4442C36.0745 32.6348 35.1635 33.4685 34.0233 33.8919L36.3203 37.6026H32.077L29.999 34.1955H28.2661Z" fill="#BCBCBC"/>
<path fill-rule="evenodd" clip-rule="evenodd" d="M32.3814 26.1639H24.2646C24.4578 28.7103 26.6781 30.8902 28.9767 30.8902H36.5755C37.014 28.7739 35.5044 26.1639 32.3814 26.1639Z" fill="url(#paint1_linear_118_2605)"/>
<path d="M178.037 0H184.777C185.717 0 186.303 0.766793 186.083 1.71066L182.945 15.1817C182.724 16.1224 181.782 16.8898 180.841 16.8898H174.102C173.163 16.8898 172.577 16.1224 172.796 15.1817L175.935 1.71066C176.154 0.766793 177.095 0 178.037 0Z" fill="#E21836"/>
<path d="M184.216 0H191.966C192.907 0 192.483 0.766793 192.261 1.71066L189.124 15.1817C188.904 16.1224 188.973 16.8898 188.031 16.8898H180.28C179.337 16.8898 178.755 16.1224 178.976 15.1817L182.112 1.71066C182.335 0.766793 183.275 0 184.216 0Z" fill="#00447C"/>
<path d="M191.658 0H198.398C199.34 0 199.925 0.766793 199.703 1.71066L196.567 15.1817C196.345 16.1224 195.403 16.8898 194.461 16.8898H187.724C186.782 16.8898 186.197 16.1224 186.418 15.1817L189.556 1.71066C189.775 0.766793 190.716 0 191.658 0Z" fill="#007B84"/>
<path d="M179.798 4.31724C179.105 4.3243 178.9 4.31724 178.835 4.3018C178.81 4.42122 178.342 6.57852 178.341 6.58033C178.24 7.01678 178.167 7.3279 177.918 7.5288C177.777 7.64557 177.612 7.7019 177.42 7.7019C177.113 7.7019 176.934 7.54935 176.904 7.25989L176.898 7.16051C176.898 7.16051 176.992 6.57589 176.992 6.57261C176.992 6.57261 177.483 4.60668 177.57 4.34681C177.576 4.33203 177.576 4.3243 177.578 4.31724C176.622 4.32562 176.453 4.31724 176.442 4.3018C176.435 4.32299 176.412 4.44487 176.412 4.44487L175.91 6.66065L175.867 6.84857L175.784 7.46326C175.784 7.64557 175.82 7.79445 175.891 7.92022C176.119 8.31922 176.771 8.37907 177.139 8.37907C177.614 8.37907 178.059 8.2782 178.36 8.094C178.882 7.78537 179.019 7.30294 179.141 6.8742L179.197 6.65425C179.197 6.65425 179.703 4.61242 179.789 4.34681C179.792 4.33203 179.793 4.3243 179.798 4.31724ZM181.518 5.9644C181.396 5.9644 181.173 5.99397 180.974 6.09203C180.901 6.12932 180.832 6.17236 180.76 6.21523L180.825 5.97918L180.789 5.93943C180.365 6.02534 180.27 6.03684 179.878 6.09203L179.845 6.11388C179.8 6.4912 179.76 6.77488 179.591 7.51657C179.526 7.78987 179.46 8.06587 179.393 8.3385L179.411 8.37322C179.813 8.352 179.934 8.352 180.284 8.35777L180.312 8.32702C180.357 8.09985 180.362 8.0466 180.46 7.58655C180.507 7.36837 180.603 6.88905 180.65 6.71838C180.738 6.67797 180.823 6.63822 180.906 6.63822C181.101 6.63822 181.077 6.80889 181.07 6.87689C181.062 6.99106 180.99 7.36394 180.917 7.68412L180.868 7.89075C180.834 8.04337 180.797 8.19165 180.763 8.343L180.778 8.37322C181.173 8.352 181.294 8.352 181.632 8.35777L181.672 8.32702C181.734 7.9722 181.751 7.87725 181.86 7.36066L181.914 7.12329C182.02 6.65875 182.073 6.42319 181.993 6.23133C181.908 6.0163 181.705 5.9644 181.518 5.9644ZM183.44 6.45077C183.23 6.49118 183.096 6.51812 182.962 6.53554C182.83 6.55672 182.701 6.57595 182.498 6.6042L182.481 6.61882L182.466 6.63048C182.445 6.78193 182.43 6.91285 182.403 7.06677C182.379 7.22594 182.342 7.4068 182.283 7.66665C182.236 7.86562 182.212 7.93492 182.186 8.0049C182.16 8.07487 182.133 8.1429 182.08 8.3385L182.093 8.35657L182.103 8.37315C182.293 8.36415 182.417 8.3577 182.545 8.35657C182.673 8.352 182.805 8.35657 183.009 8.3577L183.027 8.34315L183.047 8.32702C183.076 8.15062 183.081 8.10315 183.099 8.01705C183.117 7.92472 183.147 7.79692 183.223 7.45558C183.259 7.29526 183.299 7.13543 183.336 6.97182C183.375 6.80887 183.415 6.64838 183.453 6.48806L183.448 6.46867L183.44 6.45077ZM183.444 5.79499C183.253 5.68214 182.918 5.71795 182.692 5.87384C182.466 6.02661 182.441 6.24343 182.631 6.35776C182.82 6.4675 183.156 6.4348 183.381 6.2776C183.605 6.12155 183.633 5.90669 183.444 5.79499ZM184.601 8.40855C184.988 8.40855 185.385 8.3019 185.682 7.98555C185.913 7.72897 186.018 7.34722 186.054 7.19002C186.173 6.66897 186.081 6.42569 185.964 6.27752C185.788 6.05166 185.476 5.97922 185.153 5.97922C184.958 5.97922 184.495 5.99843 184.133 6.33205C183.873 6.57271 183.753 6.89926 183.681 7.21236C183.608 7.53135 183.523 8.10562 184.052 8.31937C184.215 8.38935 184.449 8.40855 184.601 8.40855ZM184.571 7.23618C184.66 6.84161 184.765 6.51045 185.034 6.51045C185.244 6.51045 185.26 6.75685 185.166 7.15273C185.149 7.24061 185.073 7.56735 184.968 7.70647C184.896 7.80915 184.81 7.8714 184.715 7.8714C184.687 7.8714 184.519 7.8714 184.516 7.62187C184.515 7.49867 184.54 7.37284 184.571 7.23618ZM187.021 8.35777L187.051 8.3271C187.095 8.09992 187.101 8.04652 187.197 7.58655C187.244 7.36843 187.342 6.8891 187.388 6.71842C187.476 6.67786 187.56 6.6381 187.645 6.6381C187.839 6.6381 187.815 6.80878 187.808 6.87678C187.801 6.99111 187.729 7.36383 187.655 7.68397L187.609 7.8906C187.574 8.04337 187.535 8.19157 187.501 8.343L187.516 8.37322C187.913 8.35207 188.029 8.35207 188.37 8.35777L188.41 8.3271C188.47 7.97212 188.486 7.87717 188.598 7.3607L188.651 7.12318C188.757 6.65863 188.811 6.42324 188.733 6.23138C188.646 6.01636 188.441 5.96445 188.256 5.96445C188.134 5.96445 187.911 5.99385 187.712 6.09208C187.641 6.12937 187.569 6.17224 187.499 6.21528L187.56 5.97923L187.527 5.93932C187.104 6.02539 187.006 6.03689 186.615 6.09208L186.585 6.11393C186.537 6.49125 186.499 6.77477 186.33 7.51657C186.266 7.78995 186.199 8.06587 186.132 8.33857L186.15 8.37322C186.552 8.35207 186.673 8.35207 187.021 8.35777ZM189.939 8.37315C189.964 8.25127 190.113 7.5288 190.114 7.5288C190.114 7.5288 190.24 6.99874 190.248 6.97953C190.248 6.97953 190.288 6.92434 190.328 6.90249H190.386C190.938 6.90249 191.561 6.90249 192.049 6.54324C192.381 6.29684 192.609 5.93299 192.71 5.49079C192.736 5.38237 192.756 5.25343 192.756 5.12448C192.756 4.95512 192.722 4.78756 192.624 4.65664C192.375 4.30824 191.879 4.30183 191.306 4.29921C191.304 4.29921 191.024 4.30183 191.024 4.30183C190.291 4.31087 189.997 4.30824 189.876 4.29346C189.867 4.34684 189.847 4.44179 189.847 4.44179C189.847 4.44179 189.585 5.65834 189.585 5.66031C189.585 5.66031 188.956 8.24685 188.927 8.36872C189.567 8.361 189.829 8.361 189.939 8.37315ZM190.426 6.21208C190.426 6.21208 190.705 4.99799 190.704 5.00259L190.713 4.94033L190.716 4.89286L190.828 4.90436C190.828 4.90436 191.403 4.9538 191.417 4.95511C191.644 5.043 191.738 5.26952 191.673 5.5652C191.613 5.83542 191.438 6.06259 191.212 6.17233C191.027 6.2653 190.8 6.27302 190.566 6.27302H190.414L190.426 6.21208ZM192.163 7.25866C192.09 7.57305 192.005 8.14732 192.531 8.352C192.698 8.42332 192.848 8.44447 193.001 8.43675C193.162 8.42805 193.311 8.34727 193.449 8.23095C193.437 8.27872 193.425 8.32657 193.412 8.3745L193.436 8.40525C193.814 8.38927 193.931 8.38927 194.34 8.39242L194.378 8.36415C194.438 8.01262 194.494 7.6713 194.649 6.9988C194.725 6.67667 194.801 6.35767 194.878 6.03685L194.866 6.00154C194.443 6.0799 194.331 6.09665 193.923 6.1543L193.893 6.17944C193.889 6.21213 193.884 6.2435 193.881 6.27487C193.817 6.1727 193.725 6.08548 193.584 6.03111C193.403 5.95998 192.978 6.05164 192.613 6.38411C192.357 6.62148 192.234 6.94672 192.163 7.25866ZM193.052 7.27789C193.142 6.89038 193.246 6.56251 193.515 6.56251C193.686 6.56251 193.776 6.71971 193.757 6.98779C193.743 7.05465 193.727 7.12512 193.709 7.20478C193.682 7.31993 193.653 7.4341 193.624 7.54845C193.595 7.6266 193.561 7.7004 193.524 7.74952C193.455 7.8477 193.29 7.90867 193.195 7.90867C193.168 7.90867 193.002 7.90867 192.996 7.66357C192.995 7.54155 193.02 7.41586 193.052 7.27789ZM197.689 5.9984L197.656 5.96111C197.238 6.04588 197.162 6.05935 196.778 6.11125L196.749 6.13951C196.748 6.1441 196.747 6.15117 196.745 6.15757L196.743 6.15117C196.458 6.81135 196.466 6.66893 196.233 7.18867C196.232 7.16502 196.232 7.15023 196.23 7.1251L196.172 5.9984L196.135 5.96111C195.697 6.04588 195.687 6.05935 195.282 6.11125L195.25 6.13951C195.246 6.15298 195.246 6.16776 195.243 6.18385L195.246 6.18961C195.297 6.44816 195.285 6.3905 195.335 6.79854C195.359 6.99878 195.39 7.20017 195.414 7.39795C195.454 7.72897 195.477 7.89187 195.525 8.397C195.252 8.84805 195.187 9.01875 194.924 9.4146L194.925 9.41857L194.74 9.7116C194.719 9.7425 194.7 9.76372 194.673 9.77272C194.643 9.78735 194.605 9.78997 194.552 9.78997H194.449L194.296 10.2976L194.82 10.3066C195.127 10.3053 195.321 10.1615 195.424 9.9684L195.753 9.40425H195.748L195.783 9.3645C196.005 8.8878 197.689 5.9984 197.689 5.9984ZM192.163 12.6647H191.941L192.763 9.94597H193.036L193.122 9.66585L193.131 9.97732C193.121 10.1698 193.272 10.3405 193.67 10.3123H194.13L194.289 9.78877H194.115C194.016 9.78877 193.97 9.76365 193.975 9.70972L193.967 9.39285H193.115V9.3945C192.84 9.40027 192.017 9.42097 191.85 9.4653C191.649 9.5172 191.436 9.66997 191.436 9.66997L191.52 9.38955H190.723L190.557 9.94597L189.724 12.7063H189.562L189.404 13.226H190.991L190.938 13.3993H191.72L191.772 13.226H191.991L192.163 12.6647ZM191.512 10.4983C191.385 10.5337 191.147 10.6408 191.147 10.6408L191.358 9.94597H191.991L191.838 10.4522C191.838 10.4522 191.643 10.4637 191.512 10.4983ZM191.524 11.491C191.524 11.491 191.325 11.516 191.194 11.5456C191.066 11.5846 190.824 11.7079 190.824 11.7079L191.042 10.9848H191.679L191.524 11.491ZM191.169 12.6711H190.534L190.719 12.0609H191.352L191.169 12.6711ZM192.699 10.9848H193.615L193.483 11.4109H192.555L192.416 11.8767H193.228L192.613 12.7423C192.57 12.8058 192.531 12.8283 192.489 12.8462C192.446 12.868 192.39 12.8937 192.324 12.8937H192.099L191.944 13.4039H192.533C192.839 13.4039 193.02 13.2646 193.154 13.0818L193.575 12.5049L193.665 13.0906C193.685 13.2004 193.764 13.2646 193.817 13.2895C193.876 13.3192 193.937 13.3699 194.023 13.3774C194.115 13.3814 194.182 13.3845 194.226 13.3845H194.516L194.69 12.8135H194.575C194.51 12.8135 194.397 12.8025 194.378 12.782C194.358 12.757 194.358 12.7186 194.349 12.6601L194.256 12.0731H193.881L194.046 11.8767H194.971L195.114 11.4109H194.256L194.39 10.9848H195.245L195.403 10.4593H192.855L192.699 10.9848ZM184.966 12.7897L185.18 12.0788H186.058L186.219 11.5501H185.34L185.474 11.1124H186.333L186.492 10.6004H184.342L184.186 11.1124H184.674L184.545 11.5501H184.055L183.892 12.0878H184.38L184.096 13.0285C184.057 13.153 184.114 13.2004 184.149 13.2583C184.186 13.3146 184.224 13.3519 184.307 13.3731C184.393 13.3923 184.452 13.4038 184.532 13.4038H185.523L185.699 12.818L185.26 12.8783C185.175 12.8783 184.941 12.8681 184.966 12.7897ZM185.067 9.3864L184.844 9.7887C184.797 9.87652 184.754 9.93105 184.715 9.95625C184.681 9.9774 184.614 9.98625 184.516 9.98625H184.4L184.245 10.5009H184.63C184.816 10.5009 184.958 10.4329 185.026 10.3989C185.1 10.3598 185.118 10.3822 185.175 10.3276L185.305 10.2148H186.51L186.669 9.67897H185.788L185.942 9.3864H185.067ZM186.845 12.8001C186.824 12.7705 186.839 12.7184 186.87 12.61L187.2 11.5204H188.37C188.541 11.518 188.664 11.516 188.745 11.5102C188.831 11.5012 188.925 11.4705 189.027 11.4154C189.132 11.3575 189.186 11.2966 189.231 11.2266C189.282 11.1568 189.363 11.004 189.433 10.7685L189.847 9.38962L188.632 9.39667C188.632 9.39667 188.258 9.45187 188.093 9.51285C187.926 9.5808 187.689 9.7707 187.689 9.7707L187.799 9.39277H187.048L185.997 12.8783C185.96 13.0136 185.935 13.1119 185.929 13.1708C185.927 13.2344 186.009 13.2973 186.063 13.3448C186.126 13.3923 186.219 13.3846 186.308 13.3923C186.402 13.3993 186.535 13.4038 186.719 13.4038H187.296L187.473 12.8059L186.957 12.8546C186.901 12.8546 186.861 12.8251 186.845 12.8001ZM187.412 10.7845H188.642L188.564 11.0296C188.553 11.0354 188.526 11.0175 188.401 11.0323H187.336L187.412 10.7845ZM187.659 9.96255H188.898L188.81 10.2577C188.81 10.2577 188.225 10.252 188.131 10.2692C187.719 10.3405 187.479 10.5607 187.479 10.5607L187.659 9.96255ZM188.592 11.8504C188.581 11.887 188.565 11.9093 188.543 11.9261C188.517 11.9422 188.477 11.9479 188.417 11.9479H188.241L188.252 11.6494H187.523L187.494 13.1087C187.492 13.214 187.503 13.2748 187.579 13.3237C187.656 13.3846 187.894 13.3923 188.214 13.3923H188.67L188.835 12.8461L188.437 12.868L188.305 12.8757C188.287 12.868 188.27 12.8609 188.25 12.8417C188.234 12.8251 188.205 12.8353 188.21 12.73L188.214 12.3559L188.631 12.3387C188.856 12.3387 188.952 12.2655 189.034 12.1957C189.112 12.1288 189.138 12.0519 189.168 11.9479L189.237 11.6167H188.664L188.592 11.8504Z" fill="#FEFEFE"/>
</g>
<defs>
<linearGradient id="paint0_linear_118_2605" x1="162.146" y1="5.87715" x2="149.883" y2="5.87715" gradientUnits="userSpaceOnUse">
<stop stop-color="#1F5CD7"/>
<stop offset="1" stop-color="#02AEFF"/>
</linearGradient>
<linearGradient id="paint1_linear_118_2605" x1="36.65" y1="29.1369" x2="24.2646" y2="29.1369" gradientUnits="userSpaceOnUse">
<stop stop-color="#1F5CD7"/>
<stop offset="1" stop-color="#02AEFF"/>
</linearGradient>
<clipPath id="clip0_118_2605">
<rect width="199.5" height="42" fill="white" transform="translate(0.25)"/>
</clipPath>
</defs>
</svg>
