<svg width="44" height="36" viewBox="0 0 44 36" fill="none" xmlns="http://www.w3.org/2000/svg">
<path fill-rule="evenodd" clip-rule="evenodd" d="M1.45712 18.9095C1.45676 19.0946 1.44324 19.3176 1.42847 19.5612C1.36028 20.6859 1.26541 22.2507 2.31514 22.5582C2.54069 22.6242 4.18597 22.6029 5.1451 22.5904L5.14536 22.5904L5.14812 22.5904C5.41283 22.587 5.62494 22.5842 5.74001 22.5842L18.3393 22.5824C18.3916 22.5824 18.469 22.5793 18.5644 22.5755L18.5645 22.5755C19.3313 22.545 21.2544 22.4684 20.5404 23.5507C20.3196 23.8855 19.7737 23.8635 19.3622 23.847C19.2816 23.8437 19.2063 23.8407 19.1395 23.8406L3.55511 23.8394C0.726492 23.8423 0.202687 23.0948 0.20196 20.5568L0.201363 4.33364C0.189925 2.63571 0.390258 1.17813 2.42046 0.897233C3.97901 0.872385 5.54061 0.880879 7.10146 0.88937C7.88886 0.893653 8.67607 0.897935 9.46259 0.897935L33.8411 0.895592L33.867 0.895529C35.2666 0.892075 36.8471 0.888174 37.1385 2.74434C37.1969 3.11573 37.1875 3.51135 37.1783 3.89828C37.175 4.03794 37.1717 4.17646 37.1717 4.31231L37.1745 8.85649C37.1798 9.68454 37.1497 11.1057 35.9591 10.1427L35.9295 10.1184C35.9144 8.86152 35.9197 7.60358 35.9249 6.34577V6.34567V6.34556V6.34546C35.9282 5.54797 35.9315 4.75054 35.9296 3.95348C35.9253 2.08522 35.4231 2.09477 34.1367 2.11924C33.9799 2.12222 33.8114 2.12542 33.6308 2.12548L9.4647 2.12676C8.71031 2.12672 7.95489 2.12175 7.19917 2.11678C5.7325 2.10712 4.26469 2.09746 2.80107 2.12383C1.34404 2.15006 1.39566 3.34491 1.44205 4.41869L1.44205 4.4187C1.44998 4.6022 1.45776 4.78216 1.45782 4.95216L1.45726 14.6042C1.45719 14.9405 1.45374 15.2779 1.45029 15.6155L1.45029 15.6156C1.44332 16.2975 1.43634 16.9807 1.45712 17.6594H21.1616C21.1682 17.4606 21.1604 17.1824 21.152 16.8804V16.8803C21.1344 16.2538 21.1139 15.5249 21.2132 15.1912C21.3475 14.7402 21.9227 14.6938 22.4064 14.6548C22.5612 14.6423 22.7067 14.6305 22.8254 14.6065C25.939 13.9759 29.0513 12.6457 31.4347 10.5235C31.5443 10.4258 31.6402 10.3277 31.7286 10.2371C32.1101 9.84658 32.3532 9.59769 32.967 10.1436C34.9789 11.9331 36.8675 12.909 39.3657 13.8582C40.2274 14.1722 41.1257 14.412 42.0152 14.6343C42.111 14.6583 42.249 14.6773 42.4059 14.6989C42.9203 14.7697 43.6376 14.8685 43.737 15.2617C43.8455 15.6909 43.7565 16.7821 43.7063 17.3976C43.6999 17.476 43.6942 17.5467 43.6895 17.6074C43.0868 25.4756 41.4293 29.7878 34.6151 33.9204L34.5243 33.9756C33.9327 34.335 33.0475 34.8729 32.4261 35.0328C32.0427 34.9413 31.7008 34.7695 31.3532 34.5949C31.3055 34.571 31.2578 34.547 31.2098 34.5231C25.6788 31.7738 22.9797 28.3529 21.7099 22.1488C21.4933 21.0902 21.299 19.9899 21.2429 18.9095L3.64829 18.9093C3.40714 18.9094 3.16565 18.9117 2.92407 18.9141L2.92377 18.9141C2.43461 18.9188 1.94505 18.9236 1.45712 18.9095ZM32.4261 11.3225C30.2188 13.2963 27.5975 14.5871 24.7695 15.4144C24.4172 15.5175 24.0578 15.5968 23.6986 15.676C23.2728 15.7699 22.8473 15.8638 22.4344 15.9971C22.1643 20.3609 23.5253 26.3168 26.403 29.57C27.5037 30.8143 30.7211 33.1277 32.3861 33.6897L32.4261 33.6828C34.5659 32.7157 37.6605 30.562 39.0968 28.6727C41.5068 25.5027 42.5314 20.0097 42.5058 15.9971C39.3003 15.4688 34.797 13.5817 32.4261 11.3225ZM7.55269 5.94696C7.54296 5.49696 7.58562 5.21184 8.02718 5.00172C8.68823 4.94899 8.83027 5.36899 8.8462 5.94696C9.72101 6.26067 10.9249 7.42129 10.5557 8.39606C10.4401 8.70133 9.993 8.86786 9.69898 8.74246C9.45277 8.63743 9.39249 8.36886 9.33567 8.1157L9.33567 8.11569L9.33566 8.11568L9.33566 8.11567C9.31343 8.01664 9.29174 7.91997 9.25964 7.83637C8.67745 6.32078 6.4557 7.40864 7.08675 8.64133C7.3116 9.08059 7.82816 9.23507 8.39751 9.40532C9.10799 9.61779 9.90066 9.85483 10.3112 10.7006C11.0354 12.1927 10.2213 13.3996 8.8462 14.0399C8.81597 14.5393 8.78597 14.8681 8.26495 15.0597C7.60859 15.1137 7.53616 14.5595 7.55269 14.0399C6.70988 13.6638 6.02445 13.1307 5.8121 12.172C5.71765 11.7455 5.77519 11.1665 6.30675 11.0861C6.78939 11.013 6.89627 11.371 7.01801 11.7787C7.11166 12.0924 7.21412 12.4356 7.50324 12.6346C8.32343 13.1993 9.58835 12.4741 9.28448 11.4681C9.12187 10.9299 8.39159 10.7027 7.74326 10.501L7.74325 10.501L7.74323 10.501L7.74322 10.501C7.45669 10.4118 7.18617 10.3277 6.98773 10.2238C5.01804 9.19328 5.57058 6.53477 7.55269 5.94696ZM24.492 8.75883C24.8366 8.76742 25.1855 8.77612 25.5195 8.74962C26.003 8.52028 26.2439 7.79712 25.6131 7.56087C25.2521 7.42557 22.6492 7.47154 21.1428 7.49814L21.1428 7.49814L21.1423 7.49815C20.7204 7.5056 20.3846 7.51153 20.2082 7.51153L17.7163 7.51177C17.5834 7.51177 17.4497 7.50975 17.3158 7.50773C17.0412 7.50359 16.7656 7.49943 16.4939 7.51259C15.867 7.79243 15.88 8.61227 16.4513 8.72501C16.757 8.78528 17.116 8.77262 17.4563 8.76063C17.5897 8.75592 17.7202 8.75132 17.8435 8.75126L23.995 8.75044C24.1582 8.75051 24.3246 8.75466 24.492 8.75883H24.492ZM20.5664 11.679L18.0507 11.6778C17.9189 11.6785 17.7842 11.6823 17.6483 11.6862C17.3102 11.6959 16.9649 11.7059 16.6402 11.6672C15.7966 11.5668 15.8691 10.5481 16.647 10.4229C16.7501 10.4229 16.9308 10.4202 17.1612 10.4168H17.1613H17.1613C18.2738 10.4003 20.5438 10.3668 20.8216 10.5252C21.3775 10.8424 21.1016 11.5497 20.5664 11.679ZM36.2103 19.9458L31.1126 24.9752C31.0149 24.8822 30.8612 24.7223 30.6757 24.5292C30.0078 23.8342 28.9266 22.7091 28.5526 22.7227C28.2477 22.7337 27.9197 23.0947 27.9499 23.4007C27.9799 23.7027 28.2902 23.9839 28.5335 24.2043C28.5787 24.2453 28.6217 24.2842 28.6601 24.3207C28.7538 24.4124 28.8477 24.504 28.9415 24.5955C29.2648 24.9109 29.5882 25.2263 29.9064 25.5465C31.0968 26.7445 31.1184 26.7231 32.0591 25.7898C32.1367 25.7128 32.2206 25.6295 32.312 25.5402L36.7876 21.1247C36.9238 20.9902 37.0682 20.8584 37.2135 20.7257C37.546 20.4223 37.8836 20.1141 38.1406 19.7579C38.1408 19.7257 38.1411 19.6935 38.1415 19.6613C38.1426 19.5642 38.1436 19.4669 38.1406 19.3699C37.9563 19.043 37.7438 18.9281 37.3852 18.9097C37.0497 19.0914 36.74 19.4081 36.453 19.7015C36.3702 19.7861 36.2893 19.8688 36.2103 19.9458Z" fill="white"/>
</svg>
